<svg xmlns="http://www.w3.org/2000/svg" xmlns:xlink="http://www.w3.org/1999/xlink" width="576" zoomAndPan="magnify" viewBox="0 0 432 287.999989" height="384" preserveAspectRatio="xMidYMid meet" version="1.0"><path fill="#288226" d="M 289.136719 127.417969 C 289.136719 138.148438 251.757812 134.183594 251.140625 125.410156 C 250.789062 108.519531 246.363281 72.953125 217.375 51.277344 C 258.34375 59.628906 287.34375 91.550781 289.136719 127.417969 Z M 289.136719 127.417969 " fill-opacity="1" fill-rule="nonzero"/><path fill="#ffebca" d="M 217.375 51.277344 C 217.375 51.277344 179.496094 52.140625 146.972656 106.394531 C 141.019531 116.125 108.679688 101.820312 112.539062 93.25 C 128.277344 59.761719 172.492188 43.265625 214.808594 50.785156 C 215.667969 50.9375 216.527344 51.101562 217.375 51.277344 Z M 217.375 51.277344 " fill-opacity="1" fill-rule="nonzero"/><path fill="#288226" d="M 217.375 51.277344 L 200.851562 118.546875 C 196.769531 131.800781 143.8125 119.222656 146.972656 106.394531 C 179.496094 52.140625 217.375 51.277344 217.375 51.277344 Z M 217.375 51.277344 " fill-opacity="1" fill-rule="nonzero"/><path fill="#ffebca" d="M 251.140625 125.410156 C 248.15625 136.828125 199.613281 130.933594 200.851562 118.546875 L 217.375 51.277344 C 246.363281 72.953125 250.789062 108.519531 251.140625 125.410156 Z M 251.140625 125.410156 " fill-opacity="1" fill-rule="nonzero"/><path fill="#fecd40" d="M 174.113281 238.320312 C 173.929688 238.320312 173.746094 238.300781 173.566406 238.257812 C 173.386719 238.21875 173.214844 238.15625 173.050781 238.078125 C 172.882812 237.996094 172.730469 237.898438 172.585938 237.785156 C 172.441406 237.671875 172.3125 237.539062 172.199219 237.398438 C 172.082031 237.253906 171.988281 237.097656 171.90625 236.933594 C 171.828125 236.765625 171.769531 236.59375 171.726562 236.414062 C 171.6875 236.234375 171.667969 236.054688 171.667969 235.871094 C 171.667969 235.6875 171.6875 235.503906 171.730469 235.324219 L 215.105469 48.875 C 215.179688 48.558594 215.3125 48.269531 215.5 48.007812 C 215.6875 47.742188 215.921875 47.527344 216.195312 47.355469 C 216.46875 47.1875 216.765625 47.074219 217.085938 47.019531 C 217.40625 46.96875 217.722656 46.976562 218.039062 47.050781 C 218.355469 47.125 218.644531 47.253906 218.90625 47.445312 C 219.171875 47.632812 219.386719 47.863281 219.558594 48.136719 C 219.730469 48.410156 219.84375 48.707031 219.894531 49.027344 C 219.949219 49.347656 219.9375 49.664062 219.867188 49.980469 L 176.488281 236.429688 C 176.425781 236.699219 176.324219 236.949219 176.175781 237.183594 C 176.027344 237.414062 175.847656 237.617188 175.628906 237.789062 C 175.414062 237.960938 175.175781 238.09375 174.917969 238.183594 C 174.65625 238.273438 174.386719 238.320312 174.113281 238.320312 Z M 174.113281 238.320312 " fill-opacity="1" fill-rule="nonzero"/><path fill="#ffa545" d="M 174.113281 238.320312 C 173.925781 238.320312 173.738281 238.296875 173.558594 238.257812 L 218.039062 47.046875 C 218.355469 47.121094 218.644531 47.253906 218.910156 47.441406 C 219.171875 47.628906 219.390625 47.859375 219.5625 48.136719 C 219.730469 48.410156 219.84375 48.707031 219.898438 49.027344 C 219.949219 49.347656 219.941406 49.664062 219.867188 49.980469 L 176.488281 236.429688 C 176.425781 236.699219 176.324219 236.949219 176.175781 237.183594 C 176.027344 237.414062 175.847656 237.617188 175.628906 237.789062 C 175.414062 237.960938 175.175781 238.09375 174.917969 238.183594 C 174.65625 238.273438 174.386719 238.320312 174.113281 238.320312 Z M 174.113281 238.320312 " fill-opacity="1" fill-rule="nonzero"/><path fill="#fff3dc" d="M 289.136719 118.472656 L 289.136719 127.417969 C 289.136719 138.148438 256.339844 115.527344 255.722656 106.753906 C 255.671875 103.898438 255.351562 101.074219 254.773438 98.277344 C 251.808594 84.089844 241.523438 69.335938 217.375 51.277344 C 254.945312 58.933594 283.449219 86.308594 289.136719 118.472656 Z M 289.136719 118.472656 " fill-opacity="1" fill-rule="nonzero"/><path fill="#fff8ee" d="M 289.136719 118.472656 L 289.136719 127.417969 C 289.136719 138.148438 256.339844 115.527344 255.722656 106.753906 C 255.671875 103.898438 255.351562 101.074219 254.773438 98.277344 C 255.308594 98.390625 255.839844 98.507812 256.371094 98.621094 C 256.371094 98.621094 279.0625 110.660156 289.136719 118.472656 Z M 289.136719 118.472656 " fill-opacity="1" fill-rule="nonzero"/><path fill="#349331" d="M 217.375 51.277344 C 217.375 51.277344 187.359375 46.097656 152.824219 91.398438 C 146.871094 101.128906 109.820312 101.113281 112.539062 93.25 C 114.140625 88.609375 115.792969 84.945312 115.792969 84.945312 C 134.21875 56.523438 175.773438 43.847656 214.808594 50.785156 C 215.667969 50.9375 216.527344 51.101562 217.375 51.277344 Z M 217.375 51.277344 " fill-opacity="1" fill-rule="nonzero"/><path fill="#48a343" d="M 158.824219 83.964844 C 156.84375 86.28125 154.84375 88.757812 152.824219 91.398438 C 146.871094 101.128906 109.820312 101.113281 112.535156 93.25 C 114.140625 88.609375 115.792969 84.945312 115.792969 84.945312 C 115.792969 84.945312 128.609375 84.078125 154.453125 83.535156 C 154.453125 83.535156 156.015625 83.679688 158.824219 83.964844 Z M 158.824219 83.964844 " fill-opacity="1" fill-rule="nonzero"/><path fill="#fff3dc" d="M 217.375 51.277344 L 207.851562 90.050781 L 205.433594 99.890625 C 201.351562 113.148438 150.109375 107.296875 151.898438 92.585938 C 152.265625 89.582031 154.453125 83.535156 154.453125 83.535156 C 178.648438 35.9375 217.375 51.277344 217.375 51.277344 Z M 217.375 51.277344 " fill-opacity="1" fill-rule="nonzero"/><path fill="#fff8ee" d="M 154.453125 83.535156 C 154.453125 83.535156 178.625 85.789062 207.851562 90.050781 L 205.433594 99.890625 C 201.351562 113.148438 150.109375 107.296875 151.898438 92.585938 C 152.265625 89.582031 154.453125 83.535156 154.453125 83.535156 Z M 154.453125 83.535156 " fill-opacity="1" fill-rule="nonzero"/><path fill="#349331" d="M 255.722656 106.753906 C 253.753906 118.390625 204.195312 112.28125 205.433594 99.890625 L 217.375 51.277344 C 245.789062 57.144531 254.5 81.3125 256.371094 98.621094 C 256.371094 98.621094 256.066406 104.746094 255.722656 106.753906 Z M 255.722656 106.753906 " fill-opacity="1" fill-rule="nonzero"/><path fill="#48a343" d="M 256.371094 98.621094 C 256.371094 98.621094 256.066406 104.742188 255.722656 106.753906 C 253.753906 118.390625 204.195312 112.28125 205.433594 99.890625 L 207.851562 90.050781 C 223.554688 92.339844 240.714844 95.210938 256.371094 98.621094 Z M 256.371094 98.621094 " fill-opacity="1" fill-rule="nonzero"/><path fill="#fae6b1" d="M 113.496094 243.402344 C 113.496094 243.402344 121.082031 254.796875 148.890625 255.445312 C 176.699219 256.097656 187.773438 256.75 222.960938 258.050781 C 258.144531 259.351562 276.0625 254.796875 299.847656 254.46875 C 323.628906 254.144531 329.820312 241.773438 296.914062 237.542969 C 264.007812 233.308594 230.714844 239.167969 216.574219 231.355469 C 202.433594 223.542969 189.550781 215.082031 166.671875 219.636719 C 143.792969 224.195312 107.8125 238.546875 113.496094 243.402344 Z M 113.496094 243.402344 " fill-opacity="1" fill-rule="nonzero"/><path fill="#efcd9c" d="M 299.84375 254.46875 C 276.0625 254.796875 258.144531 259.351562 222.960938 258.050781 C 187.773438 256.75 176.695312 256.097656 148.890625 255.445312 C 121.082031 254.796875 113.492188 243.402344 113.492188 243.402344 C 112.796875 242.804688 112.726562 242.066406 113.183594 241.21875 C 113.273438 241.339844 113.378906 241.449219 113.492188 241.546875 C 113.492188 241.546875 121.082031 252.941406 148.890625 253.589844 C 176.695312 254.242188 187.773438 254.894531 222.960938 256.195312 C 258.144531 257.496094 276.0625 252.941406 299.84375 252.613281 C 311.070312 252.460938 318.375 249.625 319.503906 246.226562 C 320.851562 250.382812 313.070312 254.289062 299.84375 254.46875 Z M 299.84375 254.46875 " fill-opacity="1" fill-rule="nonzero"/><path fill="#efcd9c" d="M 175.289062 241.460938 C 175.289062 241.644531 175.183594 241.820312 174.96875 241.996094 C 174.753906 242.171875 174.433594 242.34375 174.011719 242.511719 C 173.589844 242.675781 173.070312 242.835938 172.457031 242.984375 C 171.84375 243.132812 171.148438 243.273438 170.367188 243.398438 C 169.585938 243.527344 168.738281 243.640625 167.820312 243.738281 C 166.902344 243.839844 165.933594 243.925781 164.914062 243.992188 C 163.894531 244.0625 162.84375 244.113281 161.761719 244.148438 C 160.679688 244.183594 159.589844 244.203125 158.484375 244.203125 C 157.382812 244.203125 156.289062 244.183594 155.207031 244.148438 C 154.125 244.113281 153.074219 244.0625 152.054688 243.992188 C 151.035156 243.925781 150.066406 243.839844 149.148438 243.738281 C 148.230469 243.640625 147.382812 243.527344 146.601562 243.398438 C 145.820312 243.273438 145.125 243.132812 144.511719 242.984375 C 143.898438 242.835938 143.378906 242.675781 142.957031 242.511719 C 142.535156 242.34375 142.21875 242.171875 142.003906 241.996094 C 141.785156 241.820312 141.679688 241.644531 141.679688 241.460938 C 141.679688 241.28125 141.785156 241.105469 142.003906 240.929688 C 142.21875 240.753906 142.535156 240.582031 142.957031 240.414062 C 143.378906 240.25 143.898438 240.089844 144.511719 239.941406 C 145.125 239.792969 145.820312 239.652344 146.601562 239.527344 C 147.382812 239.398438 148.230469 239.285156 149.148438 239.1875 C 150.066406 239.085938 151.035156 239 152.054688 238.933594 C 153.074219 238.863281 154.125 238.8125 155.207031 238.777344 C 156.289062 238.742188 157.382812 238.722656 158.484375 238.722656 C 159.589844 238.722656 160.679688 238.742188 161.761719 238.777344 C 162.84375 238.8125 163.894531 238.863281 164.914062 238.933594 C 165.933594 239 166.902344 239.085938 167.820312 239.1875 C 168.738281 239.285156 169.585938 239.398438 170.367188 239.527344 C 171.148438 239.652344 171.84375 239.792969 172.457031 239.941406 C 173.070312 240.089844 173.589844 240.25 174.011719 240.414062 C 174.433594 240.582031 174.753906 240.753906 174.96875 240.929688 C 175.183594 241.105469 175.289062 241.28125 175.289062 241.460938 Z M 175.289062 241.460938 " fill-opacity="1" fill-rule="nonzero"/><path fill="#fff3dc" d="M 164.53125 226.714844 C 164.53125 227.730469 164.433594 228.734375 164.234375 229.726562 C 164.035156 230.722656 163.742188 231.6875 163.355469 232.625 C 162.964844 233.5625 162.492188 234.449219 161.925781 235.292969 C 161.363281 236.136719 160.722656 236.917969 160.003906 237.632812 C 159.289062 238.351562 158.507812 238.992188 157.664062 239.554688 C 156.820312 240.117188 155.929688 240.59375 154.992188 240.980469 C 154.054688 241.367188 153.085938 241.660156 152.09375 241.859375 C 151.097656 242.058594 150.09375 242.15625 149.078125 242.15625 C 148.0625 242.15625 147.058594 242.058594 146.0625 241.859375 C 145.066406 241.660156 144.101562 241.367188 143.164062 240.980469 C 142.226562 240.59375 141.335938 240.117188 140.492188 239.554688 C 139.648438 238.992188 138.867188 238.351562 138.152344 237.632812 C 137.433594 236.917969 136.792969 236.136719 136.230469 235.292969 C 135.664062 234.449219 135.191406 233.5625 134.800781 232.625 C 134.414062 231.6875 134.121094 230.722656 133.921875 229.726562 C 133.722656 228.734375 133.625 227.730469 133.625 226.714844 C 133.625 225.703125 133.722656 224.699219 133.921875 223.703125 C 134.121094 222.707031 134.414062 221.742188 134.800781 220.804688 C 135.191406 219.871094 135.664062 218.980469 136.230469 218.136719 C 136.792969 217.292969 137.433594 216.515625 138.152344 215.796875 C 138.867188 215.082031 139.648438 214.441406 140.492188 213.878906 C 141.335938 213.3125 142.226562 212.839844 143.164062 212.449219 C 144.101562 212.0625 145.066406 211.769531 146.0625 211.570312 C 147.058594 211.375 148.0625 211.273438 149.078125 211.273438 C 150.09375 211.273438 151.097656 211.375 152.09375 211.570312 C 153.085938 211.769531 154.054688 212.0625 154.992188 212.449219 C 155.929688 212.839844 156.820312 213.3125 157.664062 213.878906 C 158.507812 214.441406 159.289062 215.082031 160.003906 215.796875 C 160.722656 216.515625 161.363281 217.292969 161.925781 218.136719 C 162.492188 218.980469 162.964844 219.871094 163.355469 220.804688 C 163.742188 221.742188 164.035156 222.707031 164.234375 223.703125 C 164.433594 224.699219 164.53125 225.703125 164.53125 226.714844 Z M 164.53125 226.714844 " fill-opacity="1" fill-rule="nonzero"/><path fill="#fffcf8" d="M 143.820312 212.996094 C 146.539062 212.054688 149.402344 212.421875 149.859375 213.550781 C 150.179688 214.347656 147.558594 214.992188 144.839844 215.933594 C 142.121094 216.875 140.296875 217.769531 140.015625 216.960938 C 139.730469 216.148438 141.105469 213.933594 143.820312 212.996094 Z M 143.820312 212.996094 " fill-opacity="1" fill-rule="nonzero"/><path fill="#ffebca" d="M 164.40625 224.753906 C 164.507812 225.554688 164.546875 226.355469 164.523438 227.164062 C 164.5 227.972656 164.414062 228.769531 164.265625 229.566406 C 164.117188 230.359375 163.90625 231.136719 163.636719 231.894531 C 163.363281 232.65625 163.035156 233.390625 162.648438 234.101562 C 162.261719 234.808594 161.824219 235.484375 161.332031 236.125 C 160.839844 236.761719 160.300781 237.363281 159.714844 237.917969 C 159.125 238.472656 158.5 238.980469 157.835938 239.4375 C 157.167969 239.894531 156.472656 240.296875 155.742188 240.644531 C 155.015625 240.992188 154.261719 241.28125 153.488281 241.511719 C 152.714844 241.742188 151.925781 241.914062 151.125 242.019531 C 150.324219 242.125 149.519531 242.171875 148.710938 242.152344 C 147.90625 242.132812 147.105469 242.050781 146.308594 241.90625 C 145.515625 241.761719 144.734375 241.554688 143.972656 241.289062 C 143.210938 241.023438 142.472656 240.699219 141.761719 240.316406 C 141.050781 239.933594 140.371094 239.5 139.730469 239.011719 C 139.085938 238.519531 138.484375 237.984375 137.925781 237.402344 C 138.726562 237.851562 139.5625 238.222656 140.429688 238.523438 C 141.296875 238.820312 142.1875 239.039062 143.09375 239.179688 C 144 239.320312 144.914062 239.382812 145.832031 239.359375 C 146.75 239.335938 147.65625 239.234375 148.558594 239.050781 C 149.457031 238.867188 150.332031 238.605469 151.1875 238.265625 C 152.039062 237.925781 152.855469 237.511719 153.636719 237.027344 C 154.414062 236.542969 155.144531 235.992188 155.824219 235.375 C 156.507812 234.761719 157.128906 234.089844 157.691406 233.363281 C 158.25 232.636719 158.742188 231.867188 159.167969 231.054688 C 159.59375 230.242188 159.941406 229.394531 160.214844 228.519531 C 160.488281 227.644531 160.679688 226.75 160.796875 225.839844 C 160.910156 224.929688 160.941406 224.015625 160.894531 223.101562 C 160.84375 222.183594 160.714844 221.28125 160.503906 220.386719 C 160.292969 219.492188 160.007812 218.625 159.640625 217.785156 C 159.277344 216.941406 158.839844 216.140625 158.332031 215.375 C 157.824219 214.609375 157.25 213.898438 156.617188 213.234375 C 157.671875 213.824219 158.644531 214.527344 159.535156 215.34375 C 160.421875 216.160156 161.207031 217.066406 161.882812 218.066406 C 162.558594 219.066406 163.109375 220.132812 163.539062 221.261719 C 163.964844 222.390625 164.253906 223.554688 164.40625 224.753906 Z M 164.40625 224.753906 " fill-opacity="1" fill-rule="nonzero"/><path fill="#349331" d="M 161.566406 235.808594 C 160.808594 236.847656 159.929688 237.78125 158.9375 238.601562 C 157.945312 239.425781 156.863281 240.113281 155.699219 240.664062 C 154.535156 241.214844 153.320312 241.617188 152.054688 241.867188 C 150.789062 242.113281 149.511719 242.203125 148.226562 242.132812 C 147.84375 232.46875 147.582031 222.527344 147.582031 222.527344 C 156.265625 223.953125 161.234375 232.953125 161.566406 235.808594 Z M 161.566406 235.808594 " fill-opacity="1" fill-rule="nonzero"/><path fill="#349331" d="M 147.582031 222.527344 C 143.15625 225.828125 139.007812 229.445312 135.132812 233.375 C 134.527344 232.109375 134.105469 230.785156 133.859375 229.40625 C 133.617188 228.023438 133.5625 226.636719 133.699219 225.242188 C 133.832031 223.847656 134.148438 222.492188 134.652344 221.183594 C 135.15625 219.875 135.824219 218.65625 136.65625 217.53125 C 136.65625 217.53125 140.574219 218.675781 147.582031 222.527344 Z M 147.582031 222.527344 " fill-opacity="1" fill-rule="nonzero"/><path fill="#349331" d="M 147.582031 222.527344 C 147.582031 222.527344 149.332031 216.144531 152.832031 211.734375 C 153.953125 212.015625 155.027344 212.417969 156.058594 212.9375 C 157.085938 213.460938 158.046875 214.089844 158.9375 214.824219 C 159.824219 215.5625 160.621094 216.386719 161.328125 217.300781 C 162.03125 218.214844 162.625 219.195312 163.109375 220.242188 C 157.894531 220.714844 152.714844 221.480469 147.582031 222.527344 Z M 147.582031 222.527344 " fill-opacity="1" fill-rule="nonzero"/><path fill="#288226" d="M 161.566406 235.808594 C 160.808594 236.847656 159.929688 237.78125 158.9375 238.601562 C 157.945312 239.425781 156.863281 240.113281 155.699219 240.664062 C 154.535156 241.214844 153.320312 241.617188 152.054688 241.867188 C 150.789062 242.113281 149.511719 242.203125 148.226562 242.136719 L 148.226562 242.132812 C 148.1875 241.132812 148.148438 240.128906 148.109375 239.136719 C 149.308594 238.929688 150.464844 238.585938 151.582031 238.105469 C 152.695312 237.625 153.742188 237.019531 154.714844 236.292969 C 155.6875 235.566406 156.5625 234.738281 157.339844 233.804688 C 158.117188 232.871094 158.777344 231.859375 159.3125 230.769531 C 160.675781 232.828125 161.441406 234.746094 161.566406 235.808594 Z M 161.566406 235.808594 " fill-opacity="1" fill-rule="nonzero"/><path fill="#288226" d="M 163.109375 220.242188 C 163.109375 220.242188 162.152344 220.316406 160.53125 220.496094 C 159.902344 217.714844 158.597656 215.292969 156.617188 213.234375 C 158.042969 214.03125 159.308594 215.027344 160.417969 216.226562 C 161.527344 217.421875 162.425781 218.761719 163.109375 220.242188 Z M 163.109375 220.242188 " fill-opacity="1" fill-rule="nonzero"/><path fill="#fff3dc" d="M 150.972656 222.527344 C 150.972656 222.976562 150.886719 223.410156 150.714844 223.824219 C 150.542969 224.238281 150.296875 224.605469 149.980469 224.921875 C 149.660156 225.242188 149.292969 225.484375 148.878906 225.65625 C 148.464844 225.828125 148.03125 225.914062 147.582031 225.914062 C 147.132812 225.914062 146.699219 225.828125 146.285156 225.65625 C 145.871094 225.484375 145.503906 225.242188 145.1875 224.921875 C 144.867188 224.605469 144.625 224.238281 144.453125 223.824219 C 144.28125 223.410156 144.195312 222.976562 144.195312 222.527344 C 144.195312 222.078125 144.28125 221.648438 144.453125 221.234375 C 144.625 220.816406 144.867188 220.453125 145.1875 220.132812 C 145.503906 219.816406 145.871094 219.574219 146.285156 219.402344 C 146.699219 219.230469 147.132812 219.144531 147.582031 219.144531 C 148.03125 219.144531 148.464844 219.230469 148.878906 219.402344 C 149.292969 219.574219 149.660156 219.816406 149.980469 220.132812 C 150.296875 220.453125 150.542969 220.816406 150.714844 221.234375 C 150.886719 221.648438 150.972656 222.078125 150.972656 222.527344 Z M 150.972656 222.527344 " fill-opacity="1" fill-rule="nonzero"/><path fill="#efcd9c" d="M 310.335938 243.773438 C 310.335938 243.949219 310.246094 244.128906 310.070312 244.308594 C 309.890625 244.484375 309.628906 244.660156 309.273438 244.835938 C 308.921875 245.011719 308.484375 245.183594 307.960938 245.355469 C 307.433594 245.527344 306.828125 245.695312 306.136719 245.859375 C 305.445312 246.023438 304.671875 246.183594 303.820312 246.34375 C 302.96875 246.5 302.042969 246.652344 301.039062 246.800781 C 300.035156 246.949219 298.960938 247.09375 297.8125 247.230469 C 296.667969 247.371094 295.457031 247.5 294.175781 247.628906 C 292.898438 247.753906 291.5625 247.875 290.167969 247.988281 C 288.769531 248.101562 287.320312 248.207031 285.816406 248.304688 C 284.316406 248.40625 282.769531 248.496094 281.175781 248.582031 C 279.582031 248.664062 277.949219 248.742188 276.28125 248.808594 C 274.613281 248.878906 272.914062 248.9375 271.183594 248.992188 C 269.453125 249.042969 267.703125 249.085938 265.933594 249.121094 C 264.160156 249.15625 262.375 249.179688 260.578125 249.199219 C 258.777344 249.214844 256.976562 249.226562 255.171875 249.226562 C 253.363281 249.226562 251.5625 249.214844 249.761719 249.199219 C 247.964844 249.179688 246.179688 249.15625 244.40625 249.121094 C 242.636719 249.085938 240.886719 249.042969 239.15625 248.992188 C 237.425781 248.9375 235.726562 248.878906 234.058594 248.808594 C 232.390625 248.742188 230.757812 248.664062 229.164062 248.582031 C 227.570312 248.496094 226.023438 248.40625 224.523438 248.304688 C 223.019531 248.207031 221.570312 248.101562 220.171875 247.988281 C 218.777344 247.875 217.441406 247.753906 216.164062 247.628906 C 214.886719 247.5 213.671875 247.371094 212.527344 247.230469 C 211.378906 247.09375 210.304688 246.949219 209.300781 246.800781 C 208.296875 246.652344 207.371094 246.5 206.519531 246.34375 C 205.667969 246.183594 204.894531 246.023438 204.203125 245.859375 C 203.511719 245.695312 202.90625 245.527344 202.378906 245.355469 C 201.855469 245.183594 201.417969 245.011719 201.066406 244.835938 C 200.710938 244.660156 200.449219 244.484375 200.269531 244.308594 C 200.09375 244.128906 200.003906 243.949219 200.003906 243.773438 C 200.003906 243.59375 200.09375 243.414062 200.269531 243.238281 C 200.449219 243.058594 200.710938 242.882812 201.066406 242.707031 C 201.417969 242.535156 201.855469 242.359375 202.378906 242.191406 C 202.90625 242.019531 203.511719 241.851562 204.203125 241.6875 C 204.894531 241.519531 205.667969 241.359375 206.519531 241.203125 C 207.371094 241.042969 208.296875 240.890625 209.300781 240.742188 C 210.304688 240.59375 211.378906 240.453125 212.527344 240.3125 C 213.671875 240.175781 214.886719 240.042969 216.164062 239.917969 C 217.441406 239.789062 218.777344 239.671875 220.171875 239.558594 C 221.570312 239.445312 223.019531 239.339844 224.523438 239.238281 C 226.023438 239.140625 227.570312 239.046875 229.164062 238.964844 C 230.757812 238.878906 232.390625 238.804688 234.058594 238.734375 C 235.726562 238.667969 237.425781 238.605469 239.15625 238.554688 C 240.886719 238.503906 242.636719 238.460938 244.40625 238.425781 C 246.179688 238.390625 247.964844 238.363281 249.761719 238.347656 C 251.5625 238.328125 253.363281 238.320312 255.171875 238.320312 C 256.976562 238.320312 258.777344 238.328125 260.578125 238.347656 C 262.375 238.363281 264.160156 238.390625 265.933594 238.425781 C 267.703125 238.460938 269.453125 238.503906 271.183594 238.554688 C 272.914062 238.605469 274.613281 238.667969 276.28125 238.734375 C 277.949219 238.804688 279.582031 238.878906 281.175781 238.964844 C 282.769531 239.046875 284.316406 239.140625 285.816406 239.238281 C 287.320312 239.339844 288.769531 239.445312 290.167969 239.558594 C 291.5625 239.671875 292.898438 239.789062 294.175781 239.917969 C 295.457031 240.042969 296.667969 240.175781 297.8125 240.3125 C 298.960938 240.453125 300.035156 240.59375 301.039062 240.742188 C 302.042969 240.890625 302.96875 241.042969 303.820312 241.203125 C 304.671875 241.359375 305.445312 241.519531 306.136719 241.6875 C 306.828125 241.851562 307.433594 242.019531 307.960938 242.191406 C 308.484375 242.359375 308.921875 242.535156 309.273438 242.707031 C 309.628906 242.882812 309.890625 243.058594 310.070312 243.238281 C 310.246094 243.414062 310.335938 243.59375 310.335938 243.773438 Z M 310.335938 243.773438 " fill-opacity="1" fill-rule="nonzero"/><path fill="#fecd40" d="M 210.53125 200.839844 L 249.605469 200.839844 C 249.914062 200.839844 250.214844 200.777344 250.5 200.660156 C 250.789062 200.542969 251.042969 200.371094 251.261719 200.152344 C 251.480469 199.933594 251.648438 199.679688 251.769531 199.394531 C 251.886719 199.105469 251.949219 198.808594 251.949219 198.496094 C 251.949219 198.1875 251.886719 197.886719 251.769531 197.601562 C 251.648438 197.316406 251.480469 197.0625 251.261719 196.84375 C 251.042969 196.621094 250.789062 196.453125 250.5 196.335938 C 250.214844 196.214844 249.914062 196.15625 249.605469 196.15625 L 210.53125 196.15625 C 210.21875 196.15625 209.921875 196.214844 209.632812 196.335938 C 209.347656 196.453125 209.09375 196.621094 208.875 196.84375 C 208.652344 197.0625 208.484375 197.316406 208.367188 197.601562 C 208.246094 197.886719 208.1875 198.1875 208.1875 198.496094 C 208.1875 198.808594 208.246094 199.105469 208.367188 199.394531 C 208.484375 199.679688 208.652344 199.933594 208.875 200.152344 C 209.09375 200.371094 209.347656 200.542969 209.632812 200.660156 C 209.921875 200.777344 210.21875 200.839844 210.53125 200.839844 Z M 210.53125 200.839844 " fill-opacity="1" fill-rule="nonzero"/><path fill="#ffa545" d="M 210.53125 200.839844 L 249.605469 200.839844 C 249.914062 200.839844 250.214844 200.78125 250.5 200.660156 C 250.789062 200.542969 251.042969 200.371094 251.261719 200.152344 C 251.480469 199.933594 251.648438 199.679688 251.769531 199.394531 C 251.886719 199.105469 251.949219 198.808594 251.949219 198.496094 L 208.1875 198.496094 C 208.1875 198.808594 208.246094 199.105469 208.367188 199.394531 C 208.484375 199.679688 208.652344 199.933594 208.875 200.152344 C 209.09375 200.371094 209.347656 200.542969 209.632812 200.660156 C 209.921875 200.78125 210.21875 200.839844 210.53125 200.839844 Z M 210.53125 200.839844 " fill-opacity="1" fill-rule="nonzero"/><path fill="#fecd40" d="M 304.070312 245.957031 C 304.269531 245.953125 304.464844 245.929688 304.65625 245.878906 C 304.847656 245.828125 305.03125 245.757812 305.203125 245.660156 C 305.378906 245.5625 305.539062 245.445312 305.679688 245.308594 C 305.824219 245.171875 305.949219 245.019531 306.054688 244.851562 C 306.160156 244.683594 306.242188 244.503906 306.300781 244.316406 C 306.363281 244.125 306.398438 243.933594 306.40625 243.734375 C 306.417969 243.535156 306.402344 243.339844 306.363281 243.144531 C 306.324219 242.949219 306.257812 242.761719 306.171875 242.585938 L 282.929688 195.128906 C 282.792969 194.847656 282.609375 194.605469 282.375 194.398438 C 282.144531 194.191406 281.878906 194.039062 281.585938 193.9375 C 281.289062 193.835938 280.988281 193.796875 280.679688 193.816406 C 280.367188 193.835938 280.074219 193.914062 279.792969 194.050781 C 279.511719 194.1875 279.269531 194.371094 279.066406 194.605469 C 278.859375 194.835938 278.707031 195.101562 278.605469 195.394531 C 278.503906 195.6875 278.464844 195.992188 278.484375 196.300781 C 278.503906 196.613281 278.582031 196.90625 278.71875 197.1875 L 301.960938 244.644531 C 302.160156 245.042969 302.449219 245.363281 302.828125 245.601562 C 303.207031 245.835938 303.621094 245.957031 304.070312 245.957031 Z M 304.070312 245.957031 " fill-opacity="1" fill-rule="nonzero"/><path fill="#ffa545" d="M 304.070312 245.957031 C 304.429688 245.957031 304.773438 245.875 305.097656 245.714844 L 279.796875 194.054688 C 279.515625 194.191406 279.273438 194.375 279.066406 194.609375 C 278.863281 194.839844 278.710938 195.105469 278.609375 195.398438 C 278.507812 195.691406 278.46875 195.992188 278.488281 196.300781 C 278.507812 196.613281 278.585938 196.90625 278.71875 197.1875 L 301.960938 244.644531 C 302.160156 245.042969 302.449219 245.363281 302.828125 245.601562 C 303.207031 245.835938 303.621094 245.957031 304.070312 245.957031 Z M 304.070312 245.957031 " fill-opacity="1" fill-rule="nonzero"/><path fill="#ffa545" d="M 266.964844 245.957031 C 267.164062 245.953125 267.359375 245.929688 267.554688 245.878906 C 267.746094 245.828125 267.929688 245.757812 268.101562 245.660156 C 268.277344 245.5625 268.433594 245.445312 268.578125 245.308594 C 268.722656 245.171875 268.847656 245.019531 268.953125 244.851562 C 269.058594 244.683594 269.140625 244.503906 269.199219 244.316406 C 269.257812 244.125 269.292969 243.933594 269.304688 243.734375 C 269.3125 243.535156 269.300781 243.339844 269.257812 243.144531 C 269.21875 242.949219 269.15625 242.761719 269.070312 242.585938 L 245.828125 195.128906 C 245.691406 194.847656 245.503906 194.605469 245.273438 194.398438 C 245.039062 194.195312 244.777344 194.039062 244.480469 193.941406 C 244.1875 193.839844 243.886719 193.796875 243.574219 193.816406 C 243.265625 193.835938 242.96875 193.914062 242.691406 194.050781 C 242.410156 194.1875 242.167969 194.371094 241.964844 194.605469 C 241.757812 194.839844 241.605469 195.101562 241.503906 195.394531 C 241.402344 195.691406 241.363281 195.992188 241.382812 196.300781 C 241.402344 196.613281 241.480469 196.90625 241.617188 197.1875 L 264.859375 244.644531 C 265.058594 245.042969 265.34375 245.363281 265.726562 245.601562 C 266.105469 245.835938 266.519531 245.957031 266.964844 245.957031 Z M 266.964844 245.957031 " fill-opacity="1" fill-rule="nonzero"/><path fill="#ffa545" d="M 262.78125 235.066406 C 263.070312 235.066406 263.347656 235.015625 263.613281 234.910156 C 263.882812 234.808594 264.125 234.664062 264.339844 234.472656 C 264.550781 234.28125 264.726562 234.058594 264.859375 233.804688 C 264.992188 233.550781 265.074219 233.28125 265.105469 232.996094 C 265.140625 232.710938 265.121094 232.429688 265.050781 232.152344 C 264.980469 231.875 264.863281 231.617188 264.699219 231.382812 C 264.535156 231.148438 264.335938 230.949219 264.097656 230.789062 C 263.859375 230.625 263.601562 230.511719 263.324219 230.445312 L 187.8125 212.488281 C 187.511719 212.414062 187.207031 212.40625 186.902344 212.453125 C 186.59375 212.503906 186.308594 212.609375 186.046875 212.773438 C 185.78125 212.9375 185.558594 213.144531 185.378906 213.394531 C 185.195312 213.644531 185.070312 213.921875 184.996094 214.222656 C 184.925781 214.523438 184.914062 214.828125 184.960938 215.136719 C 185.011719 215.441406 185.117188 215.726562 185.28125 215.992188 C 185.441406 216.253906 185.648438 216.476562 185.898438 216.660156 C 186.148438 216.84375 186.425781 216.96875 186.726562 217.042969 L 262.238281 235 C 262.417969 235.042969 262.597656 235.066406 262.78125 235.066406 Z M 262.78125 235.066406 " fill-opacity="1" fill-rule="nonzero"/><path fill="#ffa545" d="M 220.046875 245.957031 C 220.492188 245.957031 220.90625 245.835938 221.289062 245.601562 C 221.667969 245.363281 221.957031 245.042969 222.152344 244.644531 L 268.636719 149.730469 C 268.773438 149.449219 268.851562 149.15625 268.871094 148.84375 C 268.890625 148.535156 268.851562 148.234375 268.75 147.9375 C 268.648438 147.644531 268.496094 147.378906 268.292969 147.148438 C 268.085938 146.914062 267.84375 146.730469 267.5625 146.59375 C 267.285156 146.457031 266.988281 146.378906 266.679688 146.359375 C 266.367188 146.339844 266.066406 146.378906 265.773438 146.480469 C 265.476562 146.582031 265.214844 146.738281 264.980469 146.941406 C 264.75 147.148438 264.5625 147.390625 264.425781 147.671875 L 217.941406 242.585938 C 217.855469 242.761719 217.792969 242.949219 217.753906 243.144531 C 217.710938 243.339844 217.699219 243.535156 217.707031 243.734375 C 217.71875 243.933594 217.753906 244.125 217.8125 244.316406 C 217.871094 244.503906 217.953125 244.683594 218.058594 244.851562 C 218.164062 245.019531 218.289062 245.171875 218.433594 245.308594 C 218.578125 245.445312 218.738281 245.5625 218.910156 245.660156 C 219.082031 245.757812 219.265625 245.828125 219.460938 245.878906 C 219.652344 245.929688 219.847656 245.953125 220.046875 245.957031 Z M 220.046875 245.957031 " fill-opacity="1" fill-rule="nonzero"/><path fill="#fae5ae" d="M 304.066406 148.699219 L 266.53125 148.699219 C 262.78125 148.699219 259.523438 169.886719 244.429688 197.792969 C 237.582031 210.449219 217.375 216.882812 190.410156 215.511719 C 190.410156 215.511719 223.09375 223.351562 233.617188 225.066406 C 255.417969 228.613281 269.078125 219.886719 269.078125 219.886719 Z M 304.066406 148.699219 " fill-opacity="1" fill-rule="nonzero"/><path fill="#349331" d="M 205.125 218.96875 C 209.71875 220.035156 212.710938 220.714844 217.761719 221.832031 C 227.628906 220.785156 237.914062 219.015625 245.300781 210.652344 C 270.109375 182.558594 268.96875 148.699219 277.207031 148.699219 L 271.03125 148.699219 C 264.71875 148.699219 266.5 170.453125 246.949219 201.164062 C 235.964844 218.410156 217.492188 218.253906 205.125 218.96875 Z M 205.125 218.96875 " fill-opacity="1" fill-rule="nonzero"/><path fill="#349331" d="M 231.132812 224.625 C 232.054688 224.796875 232.890625 224.945312 233.617188 225.066406 C 235.679688 225.398438 237.667969 225.625 239.578125 225.757812 C 245.03125 222.398438 252.527344 217.191406 257.3125 209.527344 C 285.0625 165.078125 280.824219 150.035156 287.917969 148.699219 L 281.714844 148.699219 C 276.824219 149.539062 277.277344 165.425781 261.738281 193.171875 C 244.421875 224.089844 237.730469 221.832031 231.132812 224.625 Z M 231.132812 224.625 " fill-opacity="1" fill-rule="nonzero"/><path fill="#349331" d="M 246.125 225.875 C 249.050781 225.773438 251.953125 225.449219 254.832031 224.910156 C 258.710938 221.492188 263.167969 216.890625 266.964844 210.527344 C 294.460938 164.453125 290.960938 150.222656 298.148438 148.699219 L 292.054688 148.699219 C 286.585938 148.699219 287.917969 170.074219 262.78125 209.027344 C 257.375 217.402344 250.964844 222.378906 246.125 225.875 Z M 246.125 225.875 " fill-opacity="1" fill-rule="nonzero"/><path fill="#efcd9c" d="M 186.707031 216.019531 C 189.039062 218.558594 246.125 237.371094 269.078125 219.886719 L 275.242188 207.34375 C 267.796875 211.09375 257.582031 221.832031 223.226562 213.171875 C 223.226562 213.171875 194.445312 212.664062 187.941406 212.707031 C 186.359375 212.71875 185.503906 214.710938 186.707031 216.019531 Z M 186.707031 216.019531 " fill-opacity="1" fill-rule="nonzero"/><path fill="#fecd40" d="M 257.582031 245.957031 C 258.027344 245.957031 258.441406 245.835938 258.824219 245.601562 C 259.203125 245.363281 259.492188 245.042969 259.6875 244.644531 L 306.171875 149.730469 C 306.308594 149.449219 306.386719 149.15625 306.40625 148.84375 C 306.425781 148.535156 306.382812 148.234375 306.285156 147.941406 C 306.183594 147.648438 306.03125 147.382812 305.824219 147.152344 C 305.617188 146.917969 305.375 146.734375 305.097656 146.597656 C 304.816406 146.460938 304.523438 146.382812 304.214844 146.363281 C 303.902344 146.34375 303.601562 146.382812 303.308594 146.484375 C 303.011719 146.585938 302.75 146.738281 302.515625 146.945312 C 302.285156 147.148438 302.097656 147.390625 301.960938 147.671875 L 255.476562 242.585938 C 255.390625 242.761719 255.328125 242.949219 255.289062 243.144531 C 255.246094 243.339844 255.234375 243.535156 255.242188 243.734375 C 255.253906 243.933594 255.289062 244.125 255.347656 244.316406 C 255.40625 244.503906 255.488281 244.683594 255.59375 244.851562 C 255.699219 245.019531 255.824219 245.171875 255.96875 245.308594 C 256.113281 245.445312 256.273438 245.5625 256.445312 245.660156 C 256.617188 245.757812 256.800781 245.828125 256.996094 245.878906 C 257.1875 245.929688 257.382812 245.953125 257.582031 245.957031 Z M 257.582031 245.957031 " fill-opacity="1" fill-rule="nonzero"/><path fill="#ffa545" d="M 257.582031 245.957031 C 258.027344 245.957031 258.441406 245.835938 258.824219 245.601562 C 259.203125 245.363281 259.492188 245.042969 259.6875 244.644531 L 306.171875 149.730469 C 306.308594 149.449219 306.386719 149.15625 306.40625 148.84375 C 306.425781 148.535156 306.382812 148.234375 306.285156 147.941406 C 306.183594 147.648438 306.03125 147.382812 305.824219 147.152344 C 305.617188 146.917969 305.375 146.734375 305.097656 146.597656 L 256.554688 245.714844 C 256.878906 245.875 257.21875 245.957031 257.582031 245.957031 Z M 257.582031 245.957031 " fill-opacity="1" fill-rule="nonzero"/><path fill="#fecd40" d="M 258.351562 200.839844 L 297.425781 200.839844 C 297.738281 200.839844 298.035156 200.777344 298.324219 200.660156 C 298.609375 200.542969 298.863281 200.371094 299.082031 200.152344 C 299.304688 199.933594 299.472656 199.679688 299.589844 199.394531 C 299.710938 199.105469 299.769531 198.808594 299.769531 198.496094 C 299.769531 198.1875 299.710938 197.886719 299.589844 197.601562 C 299.472656 197.316406 299.304688 197.0625 299.082031 196.84375 C 298.863281 196.621094 298.609375 196.453125 298.324219 196.335938 C 298.035156 196.214844 297.738281 196.15625 297.425781 196.15625 L 258.351562 196.15625 C 258.042969 196.15625 257.742188 196.214844 257.457031 196.335938 C 257.167969 196.453125 256.914062 196.621094 256.695312 196.84375 C 256.476562 197.0625 256.308594 197.316406 256.1875 197.601562 C 256.070312 197.886719 256.007812 198.1875 256.007812 198.496094 C 256.007812 198.808594 256.070312 199.105469 256.1875 199.394531 C 256.308594 199.679688 256.476562 199.933594 256.695312 200.152344 C 256.914062 200.371094 257.167969 200.542969 257.457031 200.660156 C 257.742188 200.777344 258.042969 200.839844 258.351562 200.839844 Z M 258.351562 200.839844 " fill-opacity="1" fill-rule="nonzero"/><path fill="#ffa545" d="M 258.351562 200.839844 L 297.425781 200.839844 C 297.738281 200.839844 298.035156 200.78125 298.324219 200.660156 C 298.609375 200.542969 298.863281 200.371094 299.082031 200.152344 C 299.304688 199.933594 299.472656 199.679688 299.589844 199.394531 C 299.710938 199.105469 299.769531 198.808594 299.769531 198.496094 L 256.007812 198.496094 C 256.011719 198.808594 256.070312 199.105469 256.1875 199.394531 C 256.308594 199.679688 256.476562 199.933594 256.695312 200.152344 C 256.914062 200.371094 257.167969 200.542969 257.457031 200.660156 C 257.742188 200.78125 258.042969 200.839844 258.351562 200.839844 Z M 258.351562 200.839844 " fill-opacity="1" fill-rule="nonzero"/><path fill="#fecd40" d="M 222.683594 217.042969 L 298.191406 235 C 298.371094 235.042969 298.550781 235.066406 298.734375 235.066406 L 298.734375 230.316406 L 223.765625 212.488281 C 223.464844 212.414062 223.160156 212.402344 222.855469 212.453125 C 222.546875 212.503906 222.261719 212.609375 221.996094 212.769531 C 221.734375 212.933594 221.511719 213.140625 221.328125 213.394531 C 221.144531 213.644531 221.019531 213.921875 220.945312 214.222656 C 220.875 214.523438 220.863281 214.828125 220.914062 215.136719 C 220.960938 215.441406 221.066406 215.726562 221.230469 215.992188 C 221.394531 216.253906 221.601562 216.480469 221.851562 216.660156 C 222.101562 216.84375 222.378906 216.96875 222.683594 217.042969 Z M 222.683594 217.042969 " fill-opacity="1" fill-rule="nonzero"/><path fill="#ffa545" d="M 222.683594 217.042969 L 298.191406 235 C 298.371094 235.042969 298.550781 235.066406 298.734375 235.066406 L 298.734375 232.722656 L 220.945312 214.222656 C 220.875 214.523438 220.863281 214.828125 220.910156 215.136719 C 220.960938 215.441406 221.066406 215.726562 221.230469 215.992188 C 221.390625 216.257812 221.601562 216.480469 221.851562 216.660156 C 222.101562 216.84375 222.378906 216.96875 222.683594 217.042969 Z M 222.683594 217.042969 " fill-opacity="1" fill-rule="nonzero"/><path fill="#288226" d="M 190.316406 212.707031 C 189.402344 213.992188 189.683594 216.707031 193.5625 218.941406 C 196.410156 219.960938 198.773438 220.652344 203.222656 221.832031 C 203.222656 221.832031 194.648438 218.207031 195.667969 212.753906 C 193.625 212.730469 191.789062 212.714844 190.316406 212.707031 Z M 190.316406 212.707031 " fill-opacity="1" fill-rule="nonzero"/><path fill="#288226" d="M 200.574219 212.816406 C 198.617188 214.765625 201.769531 219.699219 209.007812 223.265625 C 216.835938 225.070312 225.921875 226.617188 234.886719 227.09375 C 234.773438 227.085938 224.773438 226.339844 215.402344 222.222656 C 208.867188 219.347656 203.992188 215.5625 205.976562 212.890625 C 204.167969 212.867188 202.339844 212.839844 200.574219 212.816406 Z M 200.574219 212.816406 " fill-opacity="1" fill-rule="nonzero"/><path fill="#288226" d="M 212.65625 212.996094 C 210.113281 214.765625 215.679688 223.351562 235.042969 225.808594 C 239.390625 226.359375 243.636719 226.722656 247.683594 226.945312 C 247.917969 226.925781 248.148438 226.90625 248.382812 226.882812 C 251.328125 226.609375 254.230469 226.113281 257.097656 225.390625 C 240.414062 224.300781 213.738281 218.394531 218.140625 213.085938 C 216.554688 213.058594 214.683594 213.027344 212.65625 212.996094 Z M 212.65625 212.996094 " fill-opacity="1" fill-rule="nonzero"/></svg>