<svg xmlns="http://www.w3.org/2000/svg" xmlns:xlink="http://www.w3.org/1999/xlink" width="576" zoomAndPan="magnify" viewBox="0 0 432 287.999989" height="384" preserveAspectRatio="xMidYMid meet" version="1.0"><defs><clipPath id="574c149612"><path d="M 117.769531 33 L 230 33 L 230 88 L 117.769531 88 Z M 117.769531 33 " clip-rule="nonzero"/></clipPath><clipPath id="32babe1d2b"><path d="M 230 28.800781 L 263 28.800781 L 263 91 L 230 91 Z M 230 28.800781 " clip-rule="nonzero"/></clipPath></defs><g clip-path="url(#574c149612)"><path fill="#36a03d" d="M 229.945312 80 C 229.945312 80 161.914062 114.105469 117.828125 33.777344 C 117.828125 33.777344 151.023438 41.390625 166.871094 40.578125 C 191.417969 39.324219 218.992188 38.78125 229.945312 80 " fill-opacity="1" fill-rule="nonzero"/></g><path fill="#ef9b11" d="M 220.59375 90.351562 C 195.78125 89.238281 172.75 97.679688 155.066406 112.417969 C 168.746094 104.292969 184.867188 99.9375 201.949219 100.703125 C 248.554688 102.792969 284.640625 142.265625 282.550781 188.863281 C 280.453125 235.460938 240.976562 271.539062 194.367188 269.445312 C 177.285156 268.679688 161.617188 262.890625 148.726562 253.574219 C 165.015625 269.839844 187.195312 280.3125 212.007812 281.425781 C 264.785156 283.792969 309.488281 242.945312 311.859375 190.179688 C 314.230469 137.417969 273.367188 92.722656 220.59375 90.351562 " fill-opacity="1" fill-rule="nonzero"/><path fill="#f9b60e" d="M 203.546875 107.285156 C 223.773438 108.191406 241.851562 116.726562 255.128906 129.984375 C 244.621094 122.390625 231.847656 117.671875 217.925781 117.046875 C 179.933594 115.339844 147.75 144.75 146.046875 182.734375 C 144.335938 220.714844 173.753906 252.890625 211.746094 254.597656 C 225.671875 255.222656 238.8125 251.671875 249.960938 245.046875 C 235.546875 257.0625 216.773438 263.945312 196.550781 263.03125 C 153.527344 261.101562 120.21875 224.667969 122.152344 181.660156 C 124.085938 138.652344 160.527344 105.351562 203.546875 107.285156 " fill-opacity="1" fill-rule="nonzero"/><path fill="#f9b60e" d="M 235.714844 230.1875 C 213.695312 244.980469 183.855469 239.117188 169.0625 217.101562 C 154.273438 195.089844 160.132812 165.253906 182.152344 150.46875 C 191.125 144.4375 201.398438 141.847656 211.421875 142.371094 C 211.742188 142.363281 212.058594 142.355469 212.378906 142.351562 C 200.160156 140.527344 187.25 143.078125 176.1875 150.507812 C 152.65625 166.308594 146.394531 198.1875 162.199219 221.714844 C 178.003906 245.238281 209.890625 251.5 233.421875 235.695312 C 244.484375 228.265625 251.734375 217.285156 254.660156 205.285156 C 254.535156 205.578125 254.410156 205.871094 254.28125 206.160156 C 250.980469 215.640625 244.691406 224.164062 235.714844 230.1875 " fill-opacity="1" fill-rule="nonzero"/><path fill="#f2b425" d="M 257.003906 231.738281 C 244.765625 242.917969 229.355469 248.445312 213.988281 248.453125 C 224.472656 246.765625 234.597656 242.105469 243.023438 234.40625 C 266.011719 213.402344 267.613281 177.742188 246.601562 154.761719 C 225.589844 131.777344 189.921875 130.175781 166.933594 151.183594 C 158.511719 158.882812 152.957031 168.546875 150.339844 178.835938 C 151.726562 163.535156 158.613281 148.683594 170.851562 137.5 C 196.878906 113.714844 237.265625 115.527344 261.058594 141.550781 C 284.847656 167.574219 283.035156 207.949219 257.003906 231.738281 " fill-opacity="1" fill-rule="nonzero"/><g clip-path="url(#32babe1d2b)"><path fill="#548736" d="M 234.644531 90.984375 C 234.644531 90.984375 232.75 53.179688 262.214844 37.136719 L 249.941406 28.800781 C 249.941406 28.800781 219.722656 49.617188 234.644531 90.984375 " fill-opacity="1" fill-rule="nonzero"/></g></svg>