<svg xmlns="http://www.w3.org/2000/svg" xmlns:xlink="http://www.w3.org/1999/xlink" width="576" zoomAndPan="magnify" viewBox="0 0 432 287.999989" height="384" preserveAspectRatio="xMidYMid meet" version="1.0"><defs><clipPath id="bf9fee7fc3"><path d="M 284 153 L 316.730469 153 L 316.730469 165 L 284 165 Z M 284 153 " clip-rule="nonzero"/></clipPath></defs><path fill="#ea097f" d="M 285.097656 154.910156 L 286.382812 147.21875 L 292.085938 113.089844 C 260.855469 118.878906 207.882812 125.496094 152.691406 117.484375 L 153.441406 123.140625 L 156.082031 143.101562 C 184.402344 151.496094 231.65625 161.429688 285.097656 154.910156 " fill-opacity="1" fill-rule="nonzero"/><path fill="#f06f25" d="M 273.660156 179.253906 L 276.09375 161.210938 C 217.191406 167.617188 175.917969 153.660156 147.375 145.199219 L 148.105469 150.1875 L 148.105469 150.191406 L 153.265625 185.488281 L 153.808594 189.191406 C 185.414062 190.949219 233.582031 190.96875 273.660156 179.253906 " fill-opacity="1" fill-rule="nonzero"/><path fill="#94c019" d="M 271.195312 237.289062 C 236.429688 245.359375 195.597656 244.375 165.613281 241.859375 L 166.445312 247.433594 L 169.132812 265.46875 C 226.828125 266.070312 271.195312 237.289062 271.195312 237.289062 " fill-opacity="1" fill-rule="nonzero"/><path fill="#956dbd" d="M 268.703125 227.300781 C 241.203125 228.039062 201.117188 225.1875 158.519531 208.105469 L 159.285156 232.238281 C 225.808594 245.984375 268.703125 227.300781 268.703125 227.300781 " fill-opacity="1" fill-rule="nonzero"/><path fill="#17a353" d="M 268.941406 218.921875 L 272.964844 183.515625 C 233.589844 197.089844 185.726562 195.816406 154.257812 195.648438 C 154.257812 195.648438 195.691406 228.71875 268.941406 218.921875 " fill-opacity="1" fill-rule="nonzero"/><path fill="#eb1f38" d="M 257.570312 276.792969 L 258 265.621094 L 258.636719 249.242188 C 224.589844 270.441406 170.875 272.882812 170.875 272.882812 C 196.03125 281.691406 233.761719 281.652344 257.570312 276.792969 " fill-opacity="1" fill-rule="nonzero"/><path fill="#eeb30d" d="M 283.296875 109.789062 L 290.578125 62.070312 C 242.269531 84.773438 178.183594 92.171875 140.558594 94.640625 L 143.421875 114.21875 C 198.945312 122.292969 252.027344 115.621094 283.296875 109.789062 " fill-opacity="1" fill-rule="nonzero"/><path fill="#94c019" d="M 175.445312 21.109375 L 167.363281 23.234375 C 167.195312 23.277344 167.027344 23.289062 166.863281 23.269531 C 166.308594 23.210938 165.824219 22.816406 165.675781 22.246094 C 165.480469 21.507812 165.921875 20.75 166.660156 20.558594 L 174.742188 18.429688 C 175.480469 18.238281 176.234375 18.679688 176.429688 19.417969 C 176.625 20.15625 176.183594 20.914062 175.445312 21.109375 Z M 160.261719 25.101562 L 146.710938 28.664062 C 146.542969 28.710938 146.375 28.722656 146.210938 28.703125 C 145.65625 28.644531 145.171875 28.25 145.023438 27.679688 C 144.828125 26.941406 145.269531 26.183594 146.007812 25.988281 L 159.558594 22.421875 C 160.296875 22.230469 161.054688 22.671875 161.25 23.410156 C 161.441406 24.152344 161 24.90625 160.261719 25.101562 Z M 187.625 21.445312 C 187.789062 20.699219 188.523438 20.226562 189.273438 20.390625 C 191.570312 20.894531 193.75 21.796875 195.738281 23.066406 C 200.128906 25.875 203.214844 30.203125 204.425781 35.269531 C 204.429688 35.292969 204.4375 35.320312 204.441406 35.34375 L 210.238281 67.617188 C 210.371094 68.371094 209.871094 69.089844 209.121094 69.226562 C 208.988281 69.25 208.855469 69.253906 208.726562 69.238281 C 208.132812 69.171875 207.625 68.726562 207.515625 68.105469 L 201.726562 35.875 C 200.675781 31.53125 198.023438 27.8125 194.25 25.402344 C 192.535156 24.304688 190.660156 23.53125 188.679688 23.09375 C 187.933594 22.929688 187.460938 22.191406 187.625 21.445312 Z M 188.828125 30.042969 C 191.777344 31.925781 193.738281 34.859375 194.355469 38.300781 L 202.667969 83.929688 C 206.707031 83.234375 210.789062 82.484375 214.894531 81.671875 L 206.609375 36.101562 C 205.386719 29.296875 201.347656 23.261719 195.527344 19.542969 C 189.703125 15.824219 182.535156 14.699219 175.855469 16.457031 L 128.808594 28.832031 L 131.972656 40.878906 L 179.019531 28.503906 C 182.398438 27.613281 185.882812 28.160156 188.828125 30.042969 " fill-opacity="1" fill-rule="nonzero"/><g clip-path="url(#bf9fee7fc3)"><path fill="#ea097f" d="M 284.441406 162.789062 C 284.441406 162.789062 303.632812 161.042969 316.71875 153.476562 L 313.519531 163.953125 C 313.519531 163.953125 300.726562 165.988281 284.441406 162.789062 " fill-opacity="1" fill-rule="nonzero"/></g><path fill="#eeb30d" d="M 141.742188 129.015625 C 141.742188 129.015625 125.1875 119.136719 116.65625 106.652344 L 115.015625 117.484375 C 115.015625 117.484375 125.671875 124.855469 141.742188 129.015625 " fill-opacity="1" fill-rule="nonzero"/><path fill="#eeb30d" d="M 233.785156 70.355469 C 233.785156 70.355469 267.371094 50.3125 284.6875 24.984375 L 288.015625 46.960938 C 288.015625 46.960938 266.386719 61.921875 233.785156 70.355469 " fill-opacity="1" fill-rule="nonzero"/><path fill="#94c019" d="M 277.726562 222.699219 C 277.726562 222.699219 285.46875 225.960938 292.085938 226.726562 L 287.703125 230.753906 C 287.703125 230.753906 282.644531 228.113281 277.726562 222.699219 " fill-opacity="1" fill-rule="nonzero"/><path fill="#f06f25" d="M 152.691406 202.179688 C 152.691406 202.179688 137.789062 199.636719 127.628906 188.597656 L 130.113281 203.878906 C 130.113281 203.878906 140.050781 206.847656 152.691406 202.179688 " fill-opacity="1" fill-rule="nonzero"/><path fill="#94c019" d="M 151.3125 244.007812 C 151.3125 244.007812 146.75 236.949219 144.839844 230.566406 L 138.578125 241.074219 C 138.578125 241.074219 143.609375 243.707031 151.3125 244.007812 " fill-opacity="1" fill-rule="nonzero"/><path fill="#956dbd" d="M 279.738281 204.421875 C 279.738281 204.421875 290.035156 199.140625 297.671875 191.195312 L 301.417969 202.839844 C 301.417969 202.839844 287.3125 205.859375 279.738281 204.421875 " fill-opacity="1" fill-rule="nonzero"/></svg>