<svg xmlns="http://www.w3.org/2000/svg" xmlns:xlink="http://www.w3.org/1999/xlink" width="576" zoomAndPan="magnify" viewBox="0 0 432 287.999989" height="384" preserveAspectRatio="xMidYMid meet" version="1.0"><defs><clipPath id="1fffeee6c0"><path d="M 188 70.21875 L 244 70.21875 L 244 135 L 188 135 Z M 188 70.21875 " clip-rule="nonzero"/></clipPath><clipPath id="8fecdbd99b"><path d="M 62.953125 238.480469 L 368.921875 238.480469 L 368.921875 279.191406 L 62.953125 279.191406 Z M 62.953125 238.480469 " clip-rule="nonzero"/></clipPath></defs><g clip-path="url(#1fffeee6c0)"><path fill="#7f66ba" d="M 215.9375 134.855469 C 210.25 123.945312 201.550781 113.441406 188.660156 104.339844 C 194.730469 93.347656 203.570312 82 215.9375 70.464844 C 228.304688 82 237.144531 93.347656 243.21875 104.339844 C 230.328125 113.441406 221.625 123.945312 215.9375 134.855469 " fill-opacity="1" fill-rule="nonzero"/></g><path fill="#81d077" d="M 254.488281 143.71875 C 254.117188 131.410156 250.855469 118.160156 243.21875 104.339844 C 253.46875 97.101562 266.359375 90.75 282.511719 85.773438 C 288.621094 101.558594 291.636719 115.632812 292.320312 128.175781 C 276.753906 130.730469 264.355469 136.382812 254.488281 143.71875 " fill-opacity="1" fill-rule="nonzero"/><path fill="#406a96" d="M 225.332031 182.410156 C 226.15625 167.722656 224.273438 150.84375 215.9375 134.855469 C 221.625 123.945312 230.328125 113.441406 243.21875 104.339844 C 250.855469 118.160156 254.117188 131.410156 254.488281 143.71875 C 240.023438 154.464844 230.988281 168.832031 225.332031 182.410156 " fill-opacity="1" fill-rule="nonzero"/><path fill="#7f66ba" d="M 263.941406 222.636719 C 252.902344 220.667969 241.324219 219.359375 229.347656 218.800781 C 252.058594 209.40625 295.359375 184.058594 292.320312 128.175781 C 298.25 127.199219 304.640625 126.671875 311.527344 126.671875 C 319 126.671875 327.070312 127.292969 335.757812 128.632812 C 330.472656 193.597656 294.953125 215.816406 263.941406 222.636719 " fill-opacity="1" fill-rule="nonzero"/><path fill="#406a96" d="M 229.347656 218.800781 C 226.644531 218.671875 223.914062 218.582031 221.171875 218.535156 C 231.957031 207.683594 255.566406 179.71875 254.488281 143.71875 C 264.355469 136.382812 276.753906 130.730469 292.320312 128.175781 C 295.359375 184.058594 252.058594 209.40625 229.347656 218.800781 " fill-opacity="1" fill-rule="nonzero"/><path fill="#2c378f" d="M 221.171875 218.535156 C 220.082031 218.515625 218.992188 218.5 217.894531 218.492188 C 220.378906 211.648438 224.441406 198.320312 225.332031 182.410156 C 230.988281 168.832031 240.023438 154.464844 254.488281 143.71875 C 255.566406 179.71875 231.957031 207.683594 221.171875 218.535156 " fill-opacity="1" fill-rule="nonzero"/><path fill="#81d077" d="M 177.390625 143.71875 C 167.519531 136.382812 155.125 130.730469 139.5625 128.175781 C 140.242188 115.632812 143.257812 101.558594 149.367188 85.773438 C 165.519531 90.75 178.410156 97.101562 188.660156 104.339844 C 181.019531 118.160156 177.761719 131.410156 177.390625 143.71875 " fill-opacity="1" fill-rule="nonzero"/><path fill="#406a96" d="M 206.542969 182.410156 C 200.890625 168.832031 191.855469 154.464844 177.390625 143.71875 C 177.761719 131.410156 181.019531 118.160156 188.660156 104.339844 C 201.550781 113.441406 210.25 123.945312 215.9375 134.855469 C 207.605469 150.84375 205.722656 167.722656 206.542969 182.410156 " fill-opacity="1" fill-rule="nonzero"/><path fill="#286652" d="M 215.585938 218.488281 C 214.878906 211.347656 212.765625 197.359375 206.542969 182.410156 C 205.722656 167.722656 207.605469 150.84375 215.9375 134.855469 C 224.273438 150.84375 226.15625 167.722656 225.332031 182.410156 C 219.109375 197.359375 217.003906 211.347656 216.289062 218.488281 C 216.175781 218.488281 216.058594 218.488281 215.9375 218.488281 C 215.824219 218.488281 215.703125 218.488281 215.585938 218.488281 " fill-opacity="1" fill-rule="nonzero"/><path fill="#1b2f50" d="M 217.894531 218.492188 C 217.363281 218.488281 216.828125 218.488281 216.289062 218.488281 C 217.003906 211.347656 219.109375 197.359375 225.332031 182.410156 C 224.441406 198.320312 220.378906 211.648438 217.894531 218.492188 " fill-opacity="1" fill-rule="nonzero"/><path fill="#7f66ba" d="M 167.933594 222.636719 C 136.925781 215.816406 101.402344 193.597656 96.121094 128.632812 C 104.808594 127.292969 112.875 126.671875 120.351562 126.671875 C 127.242188 126.671875 133.628906 127.199219 139.5625 128.175781 C 136.515625 184.058594 179.816406 209.40625 202.53125 218.800781 C 190.554688 219.359375 178.976562 220.667969 167.933594 222.636719 " fill-opacity="1" fill-rule="nonzero"/><path fill="#406a96" d="M 202.53125 218.800781 C 179.816406 209.40625 136.515625 184.058594 139.5625 128.175781 C 155.125 130.730469 167.519531 136.382812 177.390625 143.71875 C 176.308594 179.71875 199.921875 207.683594 210.707031 218.535156 C 207.964844 218.582031 205.234375 218.671875 202.53125 218.800781 " fill-opacity="1" fill-rule="nonzero"/><path fill="#2c378f" d="M 210.707031 218.535156 C 199.921875 207.683594 176.308594 179.71875 177.390625 143.71875 C 191.855469 154.464844 200.890625 168.832031 206.542969 182.410156 C 207.433594 198.320312 211.5 211.648438 213.984375 218.492188 C 212.886719 218.5 211.796875 218.515625 210.707031 218.535156 " fill-opacity="1" fill-rule="nonzero"/><path fill="#1c2e50" d="M 213.984375 218.492188 C 211.5 211.648438 207.433594 198.320312 206.542969 182.410156 C 212.765625 197.359375 214.878906 211.347656 215.585938 218.488281 C 215.050781 218.488281 214.519531 218.488281 213.984375 218.492188 " fill-opacity="1" fill-rule="nonzero"/><path fill="#7f66ba" d="M 337.128906 250.480469 C 303.742188 239.171875 261.664062 232.429688 215.9375 232.429688 C 170.214844 232.429688 128.136719 239.171875 94.753906 250.480469 C 113.441406 237.640625 138.789062 227.835938 167.933594 222.636719 C 177.332031 224.703125 186.3125 225.359375 193.914062 225.359375 C 206.960938 225.359375 215.9375 223.429688 215.9375 223.429688 C 215.9375 223.429688 224.917969 225.359375 237.964844 225.359375 C 245.5625 225.359375 254.546875 224.703125 263.941406 222.636719 C 293.085938 227.835938 318.4375 237.640625 337.128906 250.480469 " fill-opacity="1" fill-rule="nonzero"/><path fill="#534ca9" d="M 237.964844 225.359375 C 224.917969 225.359375 215.9375 223.429688 215.9375 223.429688 C 215.9375 223.429688 221.375 222.097656 229.347656 218.800781 C 241.324219 219.359375 252.902344 220.667969 263.941406 222.636719 C 254.546875 224.703125 245.5625 225.359375 237.964844 225.359375 " fill-opacity="1" fill-rule="nonzero"/><path fill="#2c378f" d="M 215.9375 223.429688 C 215.9375 223.429688 218.003906 221.722656 221.171875 218.535156 C 223.914062 218.582031 226.644531 218.671875 229.347656 218.800781 C 221.375 222.097656 215.9375 223.429688 215.9375 223.429688 " fill-opacity="1" fill-rule="nonzero"/><path fill="#2c3184" d="M 215.9375 223.429688 C 215.9375 223.429688 216.75 221.65625 217.894531 218.492188 C 218.992188 218.5 220.082031 218.515625 221.171875 218.535156 C 218.003906 221.722656 215.9375 223.429688 215.9375 223.429688 " fill-opacity="1" fill-rule="nonzero"/><path fill="#1c2e50" d="M 215.9375 223.429688 C 215.9375 223.429688 215.898438 221.617188 215.585938 218.488281 C 215.703125 218.488281 215.824219 218.488281 215.9375 218.488281 C 216.058594 218.488281 216.175781 218.488281 216.289062 218.488281 C 215.980469 221.617188 215.9375 223.429688 215.9375 223.429688 " fill-opacity="1" fill-rule="nonzero"/><path fill="#1d224b" d="M 215.9375 223.429688 C 215.9375 223.429688 215.980469 221.617188 216.289062 218.488281 C 216.828125 218.488281 217.363281 218.488281 217.894531 218.492188 C 216.75 221.65625 215.9375 223.429688 215.9375 223.429688 " fill-opacity="1" fill-rule="nonzero"/><path fill="#534ca9" d="M 193.914062 225.359375 C 186.3125 225.359375 177.332031 224.703125 167.933594 222.636719 C 178.976562 220.667969 190.554688 219.359375 202.53125 218.800781 C 210.503906 222.097656 215.9375 223.429688 215.9375 223.429688 C 215.9375 223.429688 206.960938 225.359375 193.914062 225.359375 " fill-opacity="1" fill-rule="nonzero"/><path fill="#2c378f" d="M 215.9375 223.429688 C 215.9375 223.429688 210.503906 222.097656 202.53125 218.800781 C 205.234375 218.671875 207.964844 218.582031 210.707031 218.535156 C 213.878906 221.722656 215.9375 223.429688 215.9375 223.429688 " fill-opacity="1" fill-rule="nonzero"/><path fill="#2c3184" d="M 215.9375 223.429688 C 215.9375 223.429688 213.878906 221.722656 210.707031 218.535156 C 211.796875 218.515625 212.886719 218.5 213.984375 218.492188 C 215.128906 221.65625 215.9375 223.429688 215.9375 223.429688 " fill-opacity="1" fill-rule="nonzero"/><path fill="#1d224b" d="M 215.9375 223.429688 C 215.9375 223.429688 215.128906 221.65625 213.984375 218.492188 C 214.519531 218.488281 215.050781 218.488281 215.585938 218.488281 C 215.898438 221.617188 215.9375 223.429688 215.9375 223.429688 " fill-opacity="1" fill-rule="nonzero"/><g clip-path="url(#8fecdbd99b)"><path fill="#81d077" d="M 368.921875 279.191406 C 326.78125 264.917969 273.664062 256.40625 215.9375 256.40625 C 158.214844 256.40625 105.097656 264.917969 62.953125 279.191406 C 98.78125 254.582031 153.992188 238.804688 215.9375 238.804688 C 277.886719 238.804688 333.097656 254.582031 368.921875 279.191406 " fill-opacity="1" fill-rule="nonzero"/></g></svg>