<svg xmlns="http://www.w3.org/2000/svg" xmlns:xlink="http://www.w3.org/1999/xlink" width="576" zoomAndPan="magnify" viewBox="0 0 432 287.999989" height="384" preserveAspectRatio="xMidYMid meet" version="1.0"><path fill="#00ebf9" d="M 180.699219 182.585938 C 172.601562 173.539062 172.789062 163.910156 188.261719 152.078125 C 190.773438 171.820312 193.148438 176.335938 180.699219 182.585938 Z M 180.699219 182.585938 " fill-opacity="1" fill-rule="evenodd"/><path fill="#a9de4d" d="M 166.773438 127.933594 C 159.148438 132.285156 153.15625 130.660156 149.457031 117.839844 C 162.441406 119.113281 165.84375 118.125 166.773438 127.933594 Z M 166.773438 127.933594 " fill-opacity="1" fill-rule="evenodd"/><path fill="#a9de4d" d="M 144.933594 92.777344 C 137.796875 98.542969 130.566406 98.023438 122.320312 85.875 C 137.261719 84.75 140.753906 83.132812 144.933594 92.777344 Z M 144.933594 92.777344 " fill-opacity="1" fill-rule="evenodd"/><path fill="#9967a6" d="M 150.425781 67.367188 C 145.195312 66.136719 142.839844 62.605469 145.503906 54.429688 C 151.386719 60.933594 153.390625 61.96875 150.425781 67.367188 Z M 150.425781 67.367188 " fill-opacity="1" fill-rule="evenodd"/><path fill="#ffd264" d="M 198.695312 215.121094 C 192.148438 221.371094 184.367188 218.75 175.960938 207.238281 C 183.464844 208.445312 194.984375 202.027344 198.695312 215.121094 Z M 198.695312 215.121094 " fill-opacity="1" fill-rule="evenodd"/><path fill="#a9de4d" d="M 175.832031 205.730469 C 172.109375 212.070312 166.136719 214.0625 155.308594 208.292969 C 166.894531 202.640625 169.132812 200.375 175.832031 205.730469 Z M 175.832031 205.730469 " fill-opacity="1" fill-rule="evenodd"/><path fill="#9967a6" d="M 171.085938 197.867188 C 167.769531 197.792969 165.667969 195.875 165.566406 190.339844 C 170.34375 193.664062 171.726562 194.050781 171.085938 197.867188 Z M 171.085938 197.867188 " fill-opacity="1" fill-rule="evenodd"/><path fill="#9967a6" d="M 158.457031 172.84375 C 153.304688 171.898438 150.511719 168.382812 151.738281 159.726562 C 158.351562 166.105469 160.414062 167.054688 158.457031 172.84375 Z M 158.457031 172.84375 " fill-opacity="1" fill-rule="evenodd"/><path fill="#ffd264" d="M 149.667969 167.066406 C 146.390625 166.464844 144.617188 164.230469 145.398438 158.726562 C 149.601562 162.78125 150.914062 163.386719 149.667969 167.066406 Z M 149.667969 167.066406 " fill-opacity="1" fill-rule="evenodd"/><path fill="#9967a6" d="M 177.417969 111 C 174.140625 110.394531 172.363281 108.160156 173.144531 102.65625 C 177.347656 106.714844 178.660156 107.316406 177.417969 111 Z M 177.417969 111 " fill-opacity="1" fill-rule="evenodd"/><path fill="#9967a6" d="M 174.953125 157.089844 C 171.675781 156.488281 169.898438 154.253906 170.679688 148.746094 C 174.882812 152.804688 176.195312 153.40625 174.953125 157.089844 Z M 174.953125 157.089844 " fill-opacity="1" fill-rule="evenodd"/><path fill="#ffd264" d="M 202.710938 172.617188 C 198.351562 171.816406 195.992188 168.84375 197.027344 161.523438 C 202.617188 166.917969 204.363281 167.71875 202.710938 172.617188 Z M 202.710938 172.617188 " fill-opacity="1" fill-rule="evenodd"/><path fill="#9967a6" d="M 124.699219 129.824219 C 119.128906 130.820312 115.222656 128.363281 113.914062 119.253906 C 122.589844 123.136719 124.988281 123.304688 124.699219 129.824219 Z M 124.699219 129.824219 " fill-opacity="1" fill-rule="evenodd"/><path fill="#ff9892" d="M 163.878906 199.992188 C 150.554688 205.566406 141.089844 201.707031 137.621094 180.019531 C 158.578125 184.710938 164.335938 183.785156 163.878906 199.992188 Z M 163.878906 199.992188 " fill-opacity="1" fill-rule="evenodd"/><path fill="#a9de4d" d="M 240.632812 89.132812 C 238.59375 72.570312 242.421875 61.238281 273.578125 58.824219 C 262.738281 72.21875 273.007812 85.269531 240.632812 89.132812 Z M 240.632812 89.132812 " fill-opacity="1" fill-rule="evenodd"/><path fill="#9967a6" d="M 235.878906 108.695312 C 232.980469 103.808594 233.914062 99.246094 242.015625 94.746094 C 241.421875 104.308594 242.109375 106.628906 235.878906 108.695312 Z M 235.878906 108.695312 " fill-opacity="1" fill-rule="evenodd"/><path fill="#00ebf9" d="M 240.328125 109.433594 C 245.679688 97.011719 255.773438 92.417969 275.78125 101.710938 C 256.535156 113.964844 253.03125 118.53125 240.328125 109.433594 Z M 240.328125 109.433594 " fill-opacity="1" fill-rule="evenodd"/><path fill="#9967a6" d="M 147.039062 136.113281 C 150.867188 134.675781 152.253906 131.835938 149.296875 126.070312 C 145.570312 131.464844 144.167969 132.429688 147.039062 136.113281 Z M 147.039062 136.113281 " fill-opacity="1" fill-rule="evenodd"/><path fill="#ff9892" d="M 162.894531 149.835938 C 168.46875 143.421875 168.082031 137.296875 156.664062 130.996094 C 155.378906 143.78125 153.796875 146.851562 162.894531 149.835938 Z M 162.894531 149.835938 " fill-opacity="1" fill-rule="evenodd"/><path fill="#ffd264" d="M 143.355469 146.023438 C 150.589844 132.96875 147.742188 121.433594 125.980469 111.34375 C 130.234375 133.871094 126.589844 145.335938 143.355469 146.023438 Z M 143.355469 146.023438 " fill-opacity="1" fill-rule="evenodd"/><path fill="#a9de4d" d="M 145.421875 169.328125 C 133.085938 179.019531 119.335938 176.203125 105.226562 155.320312 C 125.9375 158.179688 138.296875 152.796875 145.421875 169.328125 Z M 145.421875 169.328125 " fill-opacity="1" fill-rule="evenodd"/><path fill="#00ebf9" d="M 226.847656 78.914062 C 243.566406 71.453125 250.257812 66.347656 234.289062 33.339844 C 219.082031 58.492188 213.074219 63.191406 226.847656 78.914062 Z M 226.847656 78.914062 " fill-opacity="1" fill-rule="evenodd"/><path fill="#a9de4d" d="M 197.1875 196.601562 C 203.910156 192.351562 206.464844 189.742188 197.546875 176.550781 C 192.578125 188.308594 190.289062 190.703125 197.1875 196.601562 Z M 197.1875 196.601562 " fill-opacity="1" fill-rule="evenodd"/><path fill="#00ebf9" d="M 187.214844 191.785156 C 190.582031 189.121094 191.863281 187.488281 187.402344 179.234375 C 184.910156 186.597656 183.761719 188.097656 187.214844 191.785156 Z M 187.214844 191.785156 " fill-opacity="1" fill-rule="evenodd"/><path fill="#ff9892" d="M 195.171875 84.035156 C 199.867188 73.066406 192.972656 62.429688 172.167969 60.863281 C 180.035156 80.234375 180.128906 85.734375 195.171875 84.035156 Z M 195.171875 84.035156 " fill-opacity="1" fill-rule="evenodd"/><path fill="#00ebf9" d="M 199.761719 72.125 C 210.332031 66.1875 211.683594 52.148438 196.496094 35.769531 C 190.390625 57.949219 186.992188 62.695312 199.761719 72.125 Z M 199.761719 72.125 " fill-opacity="1" fill-rule="evenodd"/><path fill="#a9de4d" d="M 171.539062 75.507812 C 175.722656 68.90625 172.117188 60.023438 158.339844 54.429688 C 161.765625 69.589844 161.308594 73.429688 171.539062 75.507812 Z M 171.539062 75.507812 " fill-opacity="1" fill-rule="evenodd"/><path fill="#9967a6" d="M 189.242188 152.078125 C 198.050781 140.554688 192.921875 124.679688 168.519531 114.226562 C 172.265625 141.214844 170.773438 147.996094 189.242188 152.078125 Z M 189.242188 152.078125 " fill-opacity="1" fill-rule="evenodd"/><path fill="#ff9892" d="M 277.730469 130.769531 C 291.824219 134.207031 304.300781 123.132812 304.074219 96.59375 C 280.863281 110.863281 274.050781 112.21875 277.730469 130.769531 Z M 277.730469 130.769531 " fill-opacity="1" fill-rule="evenodd"/><path fill="#a9de4d" d="M 285.792969 157.722656 C 280.71875 144.132812 290.09375 128.03125 320.152344 124.105469 C 312.902344 136.714844 304.972656 164.179688 285.792969 157.722656 Z M 285.792969 157.722656 " fill-opacity="1" fill-rule="evenodd"/><path fill="#9967a6" d="M 241.226562 126.351562 C 237.109375 123.90625 236.640625 118.128906 242.664062 111.394531 C 244.960938 120.519531 246.273438 122.472656 241.226562 126.351562 Z M 241.226562 126.351562 " fill-opacity="1" fill-rule="evenodd"/><path fill="#ffd264" d="M 205.519531 126.660156 C 199.574219 128.539062 194.765625 124.636719 195.71875 114.160156 C 204.871094 118.925781 207.648438 119.210938 205.519531 126.660156 Z M 205.519531 126.660156 " fill-opacity="1" fill-rule="evenodd"/><path fill="#ff9892" d="M 249.164062 122.972656 C 245.992188 119.382812 247.3125 113.742188 255.113281 109.175781 C 254.503906 118.566406 255.152344 120.828125 249.164062 122.972656 Z M 249.164062 122.972656 " fill-opacity="1" fill-rule="evenodd"/><path fill="#ffd264" d="M 268.210938 131.957031 C 276.789062 130.589844 281.441406 121.167969 275.792969 105.785156 C 265.8125 119.632812 262.296875 122.046875 268.210938 131.957031 Z M 268.210938 131.957031 " fill-opacity="1" fill-rule="evenodd"/><path fill="#ffd264" d="M 266.589844 157.070312 C 273.214844 157.835938 278.609375 151.835938 277.617188 139.292969 C 267.371094 147.460938 264.269531 148.519531 266.589844 157.070312 Z M 266.589844 157.070312 " fill-opacity="1" fill-rule="evenodd"/><path fill="#9967a6" d="M 274.292969 157.269531 C 278.539062 159.507812 283.722656 156.886719 286.328125 148.214844 C 277.320312 151.027344 274.964844 150.925781 274.292969 157.269531 Z M 274.292969 157.269531 " fill-opacity="1" fill-rule="evenodd"/><path fill="#ff9892" d="M 293.75 180.523438 C 300.785156 181.625 306.800781 175.453125 306.285156 162.027344 C 295 170.300781 291.644531 171.296875 293.75 180.523438 Z M 293.75 180.523438 " fill-opacity="1" fill-rule="evenodd"/><path fill="#00ebf9" d="M 300.585938 183.070312 C 297.011719 173.9375 303.070312 165.132812 320.425781 163.933594 C 313.289062 179.992188 313.046875 184.558594 300.585938 183.070312 Z M 300.585938 183.070312 " fill-opacity="1" fill-rule="evenodd"/><path fill="#ffd264" d="M 265.664062 199.605469 C 266.90625 209.535156 284.335938 209.398438 300.292969 196.964844 C 279.375 191.933594 274.953125 189.148438 265.664062 199.605469 Z M 265.664062 199.605469 " fill-opacity="1" fill-rule="evenodd"/><path fill="#00ebf9" d="M 266.964844 187.425781 C 273.035156 187.464844 276.417969 183.617188 276.003906 174.117188 C 268.09375 180.128906 265.449219 180.925781 266.964844 187.425781 Z M 266.964844 187.425781 " fill-opacity="1" fill-rule="evenodd"/><path fill="#a9de4d" d="M 277.394531 186.597656 C 286.640625 186.339844 290.984375 180.652344 288.355469 167.070312 C 277.578125 176.082031 273.71875 177.363281 277.394531 186.597656 Z M 277.394531 186.597656 " fill-opacity="1" fill-rule="evenodd"/><path fill="#9967a6" d="M 234.417969 188.683594 C 240.128906 187.433594 242.492188 183.09375 240.085938 174.253906 C 233.929688 181.582031 231.609375 182.894531 234.417969 188.683594 Z M 234.417969 188.683594 " fill-opacity="1" fill-rule="evenodd"/><path fill="#00ebf9" d="M 250.085938 179.433594 C 248.332031 175.804688 249.664062 172.964844 255.449219 171.203125 C 254.117188 177.210938 254.394531 178.964844 250.085938 179.433594 Z M 250.085938 179.433594 " fill-opacity="1" fill-rule="evenodd"/><path fill="#a9de4d" d="M 224.71875 225.757812 C 223.949219 219.863281 227.136719 216.503906 236.058594 216.71875 C 231.402344 224.519531 230.976562 227.101562 224.71875 225.757812 Z M 224.71875 225.757812 " fill-opacity="1" fill-rule="evenodd"/><path fill="#ffd264" d="M 242.097656 220.847656 C 248.976562 222.835938 253.558594 219.652344 254.921875 208.988281 C 244.785156 213.117188 241.632812 213.152344 242.097656 220.847656 Z M 242.097656 220.847656 " fill-opacity="1" fill-rule="evenodd"/><path fill="#ff9892" d="M 180.15625 220.585938 C 176.472656 225.25 171.84375 225.316406 165.769531 218.78125 C 174.605469 216.667969 176.75 215.167969 180.15625 220.585938 Z M 180.15625 220.585938 " fill-opacity="1" fill-rule="evenodd"/><path fill="#00ebf9" d="M 173.050781 97.773438 C 176.558594 81.628906 163.589844 67.75 133.375 68.792969 C 148.066406 81.128906 147.9375 106.484375 173.050781 97.773438 Z M 173.050781 97.773438 " fill-opacity="1" fill-rule="evenodd"/><path fill="#00ebf9" d="M 131.863281 152.226562 C 130.574219 137.242188 126.007812 133.640625 107.300781 134.285156 C 109.890625 143.339844 108.832031 153.074219 131.863281 152.226562 Z M 131.863281 152.226562 " fill-opacity="1" fill-rule="evenodd"/><path fill="#00ebf9" d="M 280 105.601562 C 293.855469 96.386719 295.734375 89.433594 288.734375 68.960938 C 280.980469 76.542969 271.332031 80.414062 280 105.601562 Z M 280 105.601562 " fill-opacity="1" fill-rule="evenodd"/><path fill="#ff9892" d="M 248.527344 59.316406 C 258.746094 55.058594 260.855469 50.757812 258.886719 36.5 C 252.859375 40.464844 246.066406 41.769531 248.527344 59.316406 Z M 248.527344 59.316406 " fill-opacity="1" fill-rule="evenodd"/><path fill="#ffd264" d="M 208.742188 52.140625 C 219.023438 54.058594 222.96875 44.082031 225.1875 33.238281 C 218.277344 35.3125 204.023438 39.628906 208.742188 52.140625 Z M 208.742188 52.140625 " fill-opacity="1" fill-rule="evenodd"/><path fill="#ff9892" d="M 206.6875 39.59375 C 209.929688 34.636719 205.574219 30.402344 200.390625 26.878906 C 199.96875 30.941406 199.117188 39.332031 206.6875 39.59375 Z M 206.6875 39.59375 " fill-opacity="1" fill-rule="evenodd"/><path fill="#9967a6" d="M 192.964844 109.386719 C 198.613281 107.59375 197.914062 101.5625 196.117188 95.554688 C 193.226562 98.441406 187.261719 104.40625 192.964844 109.386719 Z M 192.964844 109.386719 " fill-opacity="1" fill-rule="evenodd"/><path fill="#ffd264" d="M 213.761719 89.066406 C 218.027344 89.253906 219.050781 84.996094 219.328125 80.488281 C 216.652344 81.722656 211.140625 84.28125 213.761719 89.066406 Z M 213.761719 89.066406 " fill-opacity="1" fill-rule="evenodd"/><path fill="#a9de4d" d="M 203.128906 92.0625 C 208.644531 89.117188 207.019531 82.605469 204.277344 76.308594 C 201.746094 79.976562 196.535156 87.5625 203.128906 92.0625 Z M 203.128906 92.0625 " fill-opacity="1" fill-rule="evenodd"/><path fill="#9967a6" d="M 228.132812 91.160156 C 234.675781 91.851562 236.816406 85.332031 237.84375 78.347656 C 233.5625 80.015625 224.734375 83.472656 228.132812 91.160156 Z M 228.132812 91.160156 " fill-opacity="1" fill-rule="evenodd"/><path fill="#ffd264" d="M 272.039062 76.253906 C 281.363281 76.699219 285.527344 66.632812 288.15625 55.96875 C 281.707031 58.886719 268.402344 64.929688 272.039062 76.253906 Z M 272.039062 76.253906 " fill-opacity="1" fill-rule="evenodd"/><path fill="#5cfee1" d="M 299.832031 126.722656 C 307.222656 129.371094 316.511719 119.035156 316.992188 111.28125 C 310.820312 115.9375 296.25 117.847656 299.832031 126.722656 Z M 299.832031 126.722656 " fill-opacity="1" fill-rule="evenodd"/><path fill="#ff9892" d="M 225.417969 121.429688 C 230.507812 118.0625 228.460938 111.65625 225.351562 105.554688 C 223.1875 109.425781 218.734375 117.421875 225.417969 121.429688 Z M 225.417969 121.429688 " fill-opacity="1" fill-rule="evenodd"/><path fill="#a9de4d" d="M 219.875 151.324219 C 229.054688 151.703125 232.203125 142.089844 233.789062 131.90625 C 227.738281 134.71875 215.257812 140.546875 219.875 151.324219 Z M 219.875 151.324219 " fill-opacity="1" fill-rule="evenodd"/><path fill="#ff9892" d="M 222.75 166.929688 C 228.054688 165.191406 227.796875 159.046875 226.53125 152.914062 C 223.6875 155.804688 217.824219 161.78125 222.75 166.929688 Z M 222.75 166.929688 " fill-opacity="1" fill-rule="evenodd"/><path fill="#ff9892" d="M 230.039062 212.164062 C 240.949219 221.859375 247.953125 205.296875 251.347656 197.851562 C 243.769531 197.792969 228.128906 197.699219 230.039062 212.164062 Z M 230.039062 212.164062 " fill-opacity="1" fill-rule="evenodd"/><path fill="#00ebf9" d="M 253.328125 200.117188 C 250.371094 208.753906 264.03125 211.804688 270.25 213.347656 C 267.75 208.078125 262.5625 197.203125 253.328125 200.117188 Z M 253.328125 200.117188 " fill-opacity="1" fill-rule="evenodd"/><path fill="#00ebf9" d="M 181.832031 88.980469 C 187.160156 84.753906 186.566406 78.09375 176.515625 72.6875 C 175.238281 83.769531 173.796875 86.4375 181.832031 88.980469 Z M 181.832031 88.980469 " fill-opacity="1" fill-rule="evenodd"/><path fill="#00ebf9" d="M 211.523438 80.832031 C 218.085938 78.351562 220.144531 70.304688 213.003906 59.367188 C 207.488281 71.714844 205.121094 74.164062 211.523438 80.832031 Z M 211.523438 80.832031 " fill-opacity="1" fill-rule="evenodd"/><path fill="#ff9892" d="M 165.566406 109.652344 C 163.949219 99.175781 153.332031 94.105469 136.132812 102.171875 C 151.761719 113.488281 154.507812 117.648438 165.566406 109.652344 Z M 165.566406 109.652344 " fill-opacity="1" fill-rule="evenodd"/><path fill="#00ebf9" d="M 135.160156 111.554688 C 137.652344 105.152344 133.300781 98.773438 120.953125 97.535156 C 126.109375 109.085938 126.308594 112.332031 135.160156 111.554688 Z M 135.160156 111.554688 " fill-opacity="1" fill-rule="evenodd"/><path fill="#9967a6" d="M 183.765625 55.84375 C 185.992188 49.929688 181.441406 42.71875 169.175781 39.109375 C 174.71875 51.636719 175.035156 54.917969 183.765625 55.84375 Z M 183.765625 55.84375 " fill-opacity="1" fill-rule="evenodd"/><path fill="#9967a6" d="M 255.351562 94.191406 C 260.824219 97.609375 267.179688 94.78125 269.921875 83.742188 C 258.777344 86.378906 255.8125 85.980469 255.351562 94.191406 Z M 255.351562 94.191406 " fill-opacity="1" fill-rule="evenodd"/><path fill="#00ebf9" d="M 255.550781 140.25 C 262.0625 139.082031 265.542969 131.75 261.144531 119.953125 C 253.648438 130.769531 250.992188 132.683594 255.550781 140.25 Z M 255.550781 140.25 " fill-opacity="1" fill-rule="evenodd"/><path fill="#ffd264" d="M 244.15625 147.15625 C 249.292969 146.539062 251.828125 141.59375 247.980469 133.34375 C 242.359375 140.574219 240.308594 141.8125 244.15625 147.15625 Z M 244.15625 147.15625 " fill-opacity="1" fill-rule="evenodd"/><path fill="#5cfee1" d="M 242.183594 161.078125 C 244.878906 167.070312 251.84375 168.273438 260.390625 160.476562 C 249.488281 156.398438 247.207031 154.382812 242.183594 161.078125 Z M 242.183594 161.078125 " fill-opacity="1" fill-rule="evenodd"/><path fill="#9967a6" d="M 253.019531 152.675781 C 255.234375 155.519531 259.097656 155.253906 262.640625 149.996094 C 256.304688 149.238281 254.828125 148.457031 253.019531 152.675781 Z M 253.019531 152.675781 " fill-opacity="1" fill-rule="evenodd"/><path fill="#47220b" d="M 284.855469 187.503906 C 277.730469 190.578125 269.792969 191.035156 261.671875 191.730469 C 258.34375 192.015625 254.988281 192.339844 251.652344 192.925781 C 253.992188 193.789062 256.261719 194.738281 258.351562 195.605469 C 263.457031 197.71875 268.957031 199.144531 274.546875 199.632812 C 280.207031 200.125 285.914062 199.691406 291.351562 198.085938 C 291.425781 198.0625 291.5 198.097656 291.527344 198.171875 C 291.550781 198.242188 291.511719 198.320312 291.441406 198.34375 C 286.0625 200.511719 280.289062 201.503906 274.472656 201.558594 C 268.582031 201.613281 262.691406 200.671875 257.140625 198.980469 C 254.308594 198.113281 251.140625 197.121094 247.949219 196.410156 C 245.976562 195.972656 244 195.664062 242.101562 195.574219 C 241.953125 195.632812 241.808594 195.691406 241.660156 195.753906 C 238.652344 197.617188 235.820312 199.300781 233.308594 200.714844 C 228.132812 205.050781 225.183594 210.816406 223.453125 217.117188 C 221.472656 224.324219 221.105469 232.230469 221.148438 239.757812 C 221.960938 253.035156 223.695312 267.808594 236.808594 274.566406 C 239.765625 276.085938 239.699219 276.75 247.261719 277.800781 C 248.332031 277.765625 253.382812 278.914062 263.195312 280.121094 C 267.816406 280.6875 270 280.960938 276.796875 280.765625 C 281.679688 280.621094 286.65625 281.757812 291.386719 282.25 C 294.78125 282.597656 315.527344 284.921875 316.140625 285.230469 C 312.898438 284.453125 246.984375 283.445312 244.472656 283.367188 C 236.953125 283.125 190.703125 282.949219 185.484375 283.253906 C 180.929688 283.519531 114.324219 287.757812 107.554688 285.898438 C 109.835938 284.769531 115.074219 284.785156 121.6875 283.480469 C 129.613281 281.914062 139.707031 283.601562 150.511719 280.976562 C 157.613281 279.253906 164.824219 280.738281 171.628906 277.585938 C 181.472656 273.023438 190.875 271.425781 194.539062 265.605469 C 204.839844 249.230469 203.449219 224.726562 203.746094 220.707031 C 203.878906 218.902344 203.472656 217.109375 202.84375 215.449219 C 200.992188 210.550781 196.304688 207.296875 191.167969 204.0625 C 190.453125 203.613281 189.730469 203.164062 189.003906 202.71875 C 187.9375 202.589844 186.894531 202.5625 185.851562 202.605469 C 182.402344 202.757812 179.039062 203.445312 175.507812 203.238281 C 169.535156 202.886719 162.765625 200.9375 156.855469 197.742188 C 150.757812 194.445312 145.589844 189.90625 143.257812 184.589844 C 143.222656 184.515625 143.25 184.429688 143.324219 184.394531 C 143.394531 184.355469 143.484375 184.386719 143.519531 184.457031 C 146.261719 189.332031 151.632812 193.207031 157.792969 195.78125 C 163.554688 198.191406 169.988281 199.410156 175.542969 199.183594 C 177.699219 199.097656 179.75 198.660156 181.804688 198.230469 C 179.175781 196.503906 176.65625 194.675781 174.429688 192.617188 C 173.777344 192.015625 173.144531 191.394531 172.542969 190.757812 C 172.480469 190.714844 172.421875 190.675781 172.363281 190.628906 C 169.949219 188.558594 165.859375 184.878906 161.917969 181.648438 C 159.25 179.460938 156.691406 177.476562 154.796875 176.40625 C 150.59375 174.039062 141.5 169.980469 133.390625 166.792969 C 126.363281 164.027344 120.109375 161.921875 118.417969 162.125 C 120.09375 161.75 126.574219 163.21875 133.902344 165.269531 C 142.453125 167.664062 152.082031 170.847656 156.585938 172.816406 C 158.289062 173.558594 160.5 174.859375 162.890625 176.382812 C 163.277344 176.628906 163.667969 176.882812 164.0625 177.140625 C 163.609375 174.164062 163.105469 170.71875 162.09375 167.824219 C 161.421875 165.898438 160.671875 164.171875 159.285156 163.34375 C 155.535156 161.105469 152.191406 158.363281 149.277344 155.257812 C 146.335938 152.125 143.824219 148.679688 141.753906 145.105469 C 140.875 143.589844 140.085938 142.046875 139.347656 140.476562 C 137.636719 136.847656 136.1875 133.136719 134.429688 129.523438 C 134.378906 129.429688 134.414062 129.316406 134.503906 129.265625 C 134.597656 129.214844 134.710938 129.25 134.761719 129.339844 C 136.878906 132.75 138.699219 136.28125 140.773438 139.710938 C 141.644531 141.148438 142.558594 142.558594 143.558594 143.933594 C 144.382812 145.070312 145.257812 146.183594 146.183594 147.269531 C 145.855469 144.679688 145.855469 142.398438 146.050781 140.347656 C 146.507812 135.582031 147.976562 132.136719 148.539062 129.078125 C 148.542969 129.035156 148.582031 129.007812 148.621094 129.011719 C 148.664062 129.019531 148.691406 129.054688 148.6875 129.097656 C 148.488281 132.152344 147.429688 135.6875 147.53125 140.402344 C 147.59375 143.40625 148.148438 146.875 149.722656 151.027344 C 150.347656 151.628906 150.992188 152.214844 151.652344 152.785156 C 154.589844 155.328125 157.875 157.511719 161.484375 159.1875 C 162.539062 159.679688 163.484375 160.425781 164.332031 161.367188 C 164.34375 159.066406 164.199219 157.25 163.945312 155.71875 C 162.902344 149.484375 160.222656 147.980469 159.878906 138.917969 C 161.222656 147.960938 164.074219 149.171875 165.804688 155.304688 C 166.351562 157.238281 166.773438 159.636719 167.019531 162.894531 C 167.105469 164.03125 167.214844 165.15625 167.351562 166.261719 C 169.6875 171.546875 170.601562 178.679688 172.082031 180.957031 C 172.300781 181.339844 172.445312 181.75 172.511719 182.160156 C 172.90625 182.753906 173.332031 183.320312 173.785156 183.863281 C 174.257812 184.199219 174.707031 184.515625 175.128906 184.8125 C 175.984375 182.019531 177.203125 179.414062 178.644531 176.875 C 181.324219 172.152344 184.550781 167.78125 186.40625 162.726562 C 187.15625 160.675781 187.679688 158.554688 187.835938 156.242188 C 187.832031 156.140625 187.914062 156.054688 188.015625 156.054688 C 188.117188 156.050781 188.199219 156.128906 188.203125 156.230469 C 188.503906 158.628906 188.386719 160.902344 188.027344 163.148438 C 186.644531 171.8125 181.273438 179.449219 181.238281 188.550781 C 181.195312 188.972656 181.078125 189.363281 180.902344 189.722656 C 182.625 190.773438 184.445312 191.734375 186.296875 192.660156 C 192.59375 195.8125 199.214844 198.519531 204.328125 202.1875 L 204.351562 202.203125 L 205.140625 192 C 205.589844 183.207031 205.21875 174.40625 204.960938 165.601562 C 204.925781 165.429688 204.894531 165.257812 204.859375 165.085938 C 197.746094 160.773438 192.019531 155.292969 187.511719 149.140625 C 181.734375 141.246094 177.980469 132.65625 175.71875 124.957031 C 179.285156 131.839844 184.386719 139.324219 191.328125 145.742188 C 194.464844 148.640625 197.972656 151.242188 201.878906 153.402344 C 201.761719 153.039062 201.644531 152.679688 201.523438 152.324219 C 199.441406 146.132812 197.074219 140.957031 194.792969 135.421875 C 190.585938 128.265625 185.566406 122.980469 180.371094 119.011719 C 165.871094 107.933594 150.34375 106.816406 147.632812 104.332031 C 147.59375 104.300781 147.589844 104.246094 147.621094 104.207031 C 147.652344 104.167969 147.710938 104.164062 147.75 104.195312 C 150.765625 106.441406 166.664062 106.027344 182.578125 115.792969 C 184.765625 117.132812 186.941406 118.664062 189.085938 120.414062 C 186.992188 116.078125 183.882812 111.472656 180.328125 106.988281 C 172.945312 97.675781 163.734375 88.933594 157.433594 84.121094 C 157.3125 84.035156 157.28125 83.867188 157.367188 83.742188 C 157.449219 83.621094 157.621094 83.589844 157.742188 83.675781 C 164.566406 87.941406 174.695312 95.914062 183.039062 104.625 C 183.710938 105.328125 184.371094 106.035156 185.015625 106.746094 C 185.316406 103.8125 185.050781 100.9375 184.484375 98.148438 C 183.007812 90.863281 179.714844 84.253906 178.9375 78.925781 C 178.929688 78.894531 178.949219 78.867188 178.980469 78.859375 C 179.011719 78.851562 179.042969 78.871094 179.050781 78.902344 C 180.585938 84.125 184.816406 90.277344 187.332031 97.359375 C 188.894531 101.753906 189.714844 106.453125 189.0625 111.476562 C 189.058594 111.484375 189.058594 111.492188 189.058594 111.5 C 192.140625 115.398438 194.632812 119.292969 196.179688 122.941406 C 198.035156 127.3125 199.984375 131.089844 201.945312 134.761719 C 203.109375 136.519531 204.234375 138.386719 205.316406 140.371094 C 205.578125 137.300781 205.960938 134.238281 206.507812 131.179688 C 206.777344 129.65625 207.132812 128.074219 207.558594 126.429688 C 207.257812 125.996094 207.039062 125.503906 206.921875 124.957031 C 204.582031 109.757812 200.113281 96.765625 194.691406 86.539062 C 189.484375 76.710938 183.492188 69.492188 177.769531 65.382812 C 184.070312 68.867188 191.003906 75.5 197.472656 84.847656 C 201.4375 90.585938 205.183594 97.316406 208.464844 104.953125 C 208.703125 101.214844 208.980469 96.71875 209.402344 92.207031 C 209.816406 87.785156 210.351562 83.390625 211.125 79.675781 C 211.792969 76.472656 212.042969 73.5625 212.582031 70.480469 C 212.71875 69.722656 212.867188 68.957031 213.046875 68.175781 C 213.058594 68.089844 213.136719 68.035156 213.222656 68.046875 C 213.304688 68.0625 213.363281 68.140625 213.351562 68.222656 C 213.273438 69.015625 213.222656 69.785156 213.191406 70.546875 C 213.046875 73.699219 213.171875 76.640625 212.914062 79.933594 C 212.628906 83.632812 212.660156 87.964844 212.816406 92.304688 C 213.023438 98.210938 213.46875 104.066406 213.71875 108.261719 C 217.527344 98.402344 222.007812 87.746094 225.425781 77.367188 C 228.113281 69.191406 230.097656 61.257812 230.472656 54.015625 C 231.050781 61.34375 230.09375 69.582031 228.464844 78.152344 C 227.160156 85.027344 225.40625 92.074219 223.660156 98.933594 C 223.882812 98.722656 224.109375 98.507812 224.335938 98.300781 C 227.601562 95.257812 231.191406 92.496094 235.015625 90.1875 C 239.832031 87.277344 247.277344 82.695312 253.84375 77.945312 C 258.484375 74.589844 262.671875 71.167969 265.171875 68.199219 C 262.898438 71.375 258.964844 75.140625 254.574219 78.878906 C 248.359375 84.164062 241.25 89.355469 236.644531 92.660156 C 233.207031 95.125 230.027344 98 227.167969 101.113281 C 224.9375 103.546875 222.921875 106.132812 221.164062 108.789062 C 219.085938 117.179688 217.375 124.988281 216.960938 131.484375 C 219.664062 129.820312 221.921875 127.820312 223.902344 125.542969 C 223.972656 125.382812 224.058594 125.226562 224.164062 125.078125 C 224.835938 124.246094 225.515625 123.421875 226.207031 122.605469 C 231.039062 115.847656 234.40625 107.714844 239.210938 99.652344 C 239.265625 99.542969 239.394531 99.5 239.503906 99.550781 C 239.613281 99.605469 239.65625 99.734375 239.605469 99.84375 C 237.839844 104.476562 236.453125 109.0625 235.019531 113.464844 C 237.550781 111.1875 240.148438 109.152344 242.773438 107.460938 C 248.167969 103.972656 253.597656 101.925781 258.726562 102.242188 C 253.753906 102.523438 248.742188 105.089844 243.945312 109.0625 C 239.535156 112.714844 235.355469 117.546875 231.597656 122.863281 C 231.203125 123.785156 230.789062 124.691406 230.351562 125.585938 C 227.492188 131.421875 223.578125 136.398438 217.632812 140.460938 C 217.40625 140.589844 217.171875 140.695312 216.933594 140.773438 C 217.066406 143.699219 217.320312 146.621094 217.636719 149.542969 C 218.613281 158.628906 220.28125 167.628906 221.648438 176.664062 L 221.652344 176.660156 C 221.609375 175.785156 221.898438 174.890625 222.53125 174.1875 C 222.941406 173.769531 223.332031 173.335938 223.707031 172.882812 C 224.722656 171.125 225.808594 169.398438 226.976562 167.707031 C 227.261719 167.125 227.53125 166.53125 227.785156 165.9375 C 230.460938 159.636719 231.515625 153.050781 232.277344 150.378906 C 233.109375 147.472656 234.292969 144.625 235.726562 141.824219 C 237.476562 138.414062 239.574219 135.089844 241.722656 131.835938 C 241.710938 131.8125 241.703125 131.789062 241.691406 131.761719 C 240.769531 128.75 240.257812 125.863281 240.277344 122.976562 C 240.296875 120.121094 240.808594 117.304688 241.9375 114.40625 C 241.949219 114.371094 241.988281 114.351562 242.027344 114.363281 C 242.0625 114.375 242.082031 114.414062 242.070312 114.449219 C 241.394531 117.382812 241.28125 120.148438 241.660156 122.886719 C 241.957031 125.03125 242.570312 127.125 243.453125 129.246094 C 247.648438 123 251.742188 117.035156 253.542969 111.296875 C 253.570312 111.199219 253.667969 111.140625 253.765625 111.167969 C 253.867188 111.195312 253.921875 111.292969 253.898438 111.394531 C 251.800781 121.066406 243.574219 131.933594 238.992188 143.316406 C 237.917969 145.984375 237.070312 148.675781 236.554688 151.390625 C 236.316406 152.667969 236.082031 154.761719 235.699219 157.296875 C 243.347656 149.753906 252.652344 143.933594 262.019531 138.082031 C 265.707031 134.679688 268.320312 130.421875 270.167969 126.054688 C 272.449219 120.660156 273.585938 115.183594 274.105469 110.988281 C 274.109375 110.929688 274.160156 110.882812 274.21875 110.886719 C 274.277344 110.890625 274.324219 110.941406 274.320312 111 C 274.308594 115.320312 273.8125 121.011719 272.164062 126.757812 C 271.542969 128.929688 270.75 131.09375 269.757812 133.191406 C 274.539062 130.097656 279.222656 126.867188 283.582031 123.261719 C 290.132812 117.847656 295.917969 111.578125 300.199219 103.574219 C 296.515625 112.011719 291.15625 118.804688 284.96875 124.808594 C 270.484375 138.871094 251.40625 148.308594 239.0625 163.753906 C 237.675781 165.492188 236.402344 167.269531 235.230469 169.078125 C 245.628906 168.820312 253.199219 166.324219 258.785156 162.894531 C 269.453125 156.347656 272.957031 146.609375 274.964844 143 C 274.992188 142.941406 275.0625 142.917969 275.121094 142.945312 C 275.179688 142.976562 275.203125 143.046875 275.171875 143.101562 C 273.515625 146.730469 270.878906 155.941406 261.984375 163.335938 C 268.613281 160.402344 275.269531 156.59375 281.160156 152.183594 C 281.214844 152.136719 281.296875 152.144531 281.34375 152.203125 C 281.386719 152.257812 281.378906 152.339844 281.324219 152.386719 C 272.816406 159.949219 262.371094 166.234375 252.773438 170.0625 C 245.011719 173.160156 237.769531 174.539062 232.398438 173.902344 C 229.527344 179.289062 227.4375 184.933594 225.867188 190.726562 C 225.542969 191.917969 225.246094 193.121094 224.964844 194.324219 C 225.03125 194.289062 225.097656 194.257812 225.167969 194.226562 C 231.457031 191.683594 241.570312 186.667969 251.496094 181.113281 C 261.246094 175.660156 270.789062 169.757812 276.316406 165.203125 C 285.789062 157.410156 289.550781 148.601562 297.457031 141.289062 C 300.519531 138.457031 304.175781 135.851562 309.003906 133.613281 C 304.464844 136.242188 301.101562 139.117188 298.351562 142.167969 C 291.015625 150.296875 287.988281 159.539062 279.113281 168.304688 C 273.859375 173.492188 264.628906 180.457031 255.128906 186.96875 C 254.402344 187.464844 253.671875 187.960938 252.941406 188.453125 C 255.800781 188.226562 258.65625 188.148438 261.488281 188.109375 C 270.730469 187.980469 279.707031 188.21875 287.742188 184.148438 C 293.449219 181.253906 298.648438 176.21875 303.152344 167.441406 C 299.476562 176.070312 294.90625 181.414062 289.773438 184.839844 C 294.125 184.105469 298.121094 182.851562 301.632812 180.972656 C 306.757812 178.226562 310.84375 174.167969 313.507812 168.519531 C 313.519531 168.488281 313.550781 168.476562 313.582031 168.488281 C 313.609375 168.5 313.621094 168.535156 313.609375 168.5625 C 311.214844 174.480469 307.253906 178.835938 302.179688 181.933594 C 297.390625 184.855469 291.605469 186.636719 285.171875 187.519531 C 285.0625 187.53125 284.957031 187.523438 284.855469 187.503906 Z M 284.855469 187.503906 " fill-opacity="1" fill-rule="evenodd"/></svg>